<svg id="Layer_1" data-name="Layer 1" xmlns="http://www.w3.org/2000/svg" viewBox="0 0 104.3 114.84"><defs><style>.cls-1{fill:none;}.cls-2{fill:#5dc6d5;}.cls-3{fill:#112145;}.cls-4{fill:#5bc6d5;}</style></defs><title>Artboard 1</title><ellipse class="cls-1" cx="52.39" cy="70.03" rx="10" ry="9.15"/><path class="cls-2" d="M82.39,70l-10-20.45a31.5,31.5,0,0,0-20-7c-16.57,0-30,12.29-30,27.46a26.42,26.42,0,0,0,10,20.46V68.94l.06.09c.56-9.64,9.26-17.31,19.94-17.31,11,0,20,8.2,20,18.31s-9,18.3-20,18.3a21.34,21.34,0,0,1-10-2.47V95.92a32.51,32.51,0,0,0,10,1.57c14.41,0,30-9.54,30-9.54V70Z"/><path class="cls-2" d="M40.32,33.66C44.63,23.25,72.39,23.4,72.39,45.07v4.51a28,28,0,0,1,6.46,7.5,25.49,25.49,0,0,1,3.54,13V43.5c0-32.34-42.07-30-48.3-17.14l.08.11"/><path class="cls-2" d="M82.39,70a25.49,25.49,0,0,0-3.54-13,28,28,0,0,0-6.46-7.5L82.39,70Z"/><path class="cls-3" d="M32.39,68.94V70c0-.34,0-.66.06-1Z"/><ellipse class="cls-4" cx="52.39" cy="70.03" rx="10" ry="9.49"/></svg>