<?xml version="1.0" encoding="utf-8"?>
<!-- Generator: Adobe Illustrator 22.0.1, SVG Export Plug-In . SVG Version: 6.00 Build 0)  -->
<svg version="1.1" id="Layer_1" xmlns="http://www.w3.org/2000/svg" xmlns:xlink="http://www.w3.org/1999/xlink" x="0px" y="0px"
	 viewBox="0 0 1185 746" style="enable-background:new 0 0 1185 746;" xml:space="preserve">
<style type="text/css">
	.st0{fill:none;stroke:#CCCCCC;}
	.st1{fill:#EEEEEE;stroke:#999999;}
	.st2{font-family:'ArialMT';}
	.st3{font-size:11px;}
</style>
<g transform="translate(40,0)">
	<path class="st0" d="M0,467c171.8,0,171.8-200,343.5-200"/>
	<path class="st0" d="M0,467c343.5,0,343.5,200,687,200"/>
	<path class="st0" d="M343.5,267C515.3,267,515.3,67,687,67"/>
	<path class="st0" d="M343.5,267c171.8,0,171.8-100,343.5-100"/>
	<path class="st0" d="M343.5,267c171.8,0,171.8,0,343.5,0"/>
	<path class="st0" d="M343.5,267c171.8,0,171.8,100,343.5,100"/>
	<path class="st0" d="M343.5,267c171.8,0,171.8,200,343.5,200"/>
	<g transform="translate(0,500)">
		<circle class="st1" cx="0" cy="-33" r="4.5"/>
	</g>
	<g transform="translate(343.5,300)">
		<circle class="st1" cx="0" cy="-33" r="4.5"/>
		<text transform="matrix(1 0 0 1 -14.0615 -30)" class="st2 st3">No</text>
	</g>
	<g transform="translate(687,100)">
		<circle class="st1" cx="0" cy="-33" r="4.5"/>
		<text transform="matrix(1 0 0 1 8 -30)" class="st2 st3">We segregate such wastes that cannot be recycled</text>
	</g>
	<g transform="translate(687,200)">
		<circle class="st1" cx="0" cy="-33" r="4.5"/>
		<text transform="matrix(1 0 0 1 8 -30)" class="st2 st3">Waste segregation is done before it&apos;s trashed</text>
	</g>
	<g transform="translate(687,300)">
		<circle class="st1" cx="0" cy="-33" r="4.5"/>
		<text transform="matrix(1 0 0 1 8 -30)" class="st2 st3">If only the process was simpler!</text>
	</g>
	<g transform="translate(687,400)">
		<circle class="st1" cx="0" cy="-33" r="4.5"/>
		<text transform="matrix(1 0 0 1 8 -30)" class="st2 st3">I do not know enough about it</text>
	</g>
	<g transform="translate(687,500)">
		<circle class="st1" cx="0" cy="-33" r="4.5"/>
		<text transform="matrix(1 0 0 1 8 -30)" class="st2 st3">Segregation of waste is time consuming and I don&apos;t have so much time on my hands</text>
	</g>
	<g transform="translate(687,700)">
		<circle class="st1" cx="0" cy="-33" r="4.5"/>
		<text transform="matrix(1 0 0 1 8 -30)" class="st2 st3">Yes</text>
	</g>
</g>
</svg>
