<svg width="847" height="847" xmlns="http://www.w3.org/2000/svg" version="1.1"><g transform="translate(423.5,423.5)"><g display="none"><path d="M0,211.75A211.75,211.75 0 1,1 0,-211.75A211.75,211.75 0 1,1 0,211.75Z" style="stroke: rgb(255, 255, 255); fill: rgb(247, 162, 162); fill-rule: evenodd;"></path><text transform="rotate(90)" x="0" dx="6" dy=".35em" style="font-size: 11px; font-family: Arial, Helvetica;"></text><title>undefined: none</title></g><g><path d="M1.833661949078657e-14,-299.45972183250285A299.45972183250285,299.45972183250285 0 0,1 150.44023963028246,-258.9282898796174L106.37731360590192,-183.0899496149136A211.75,211.75 0 0,0 1.2965947985972603e-14,-211.75Z" style="stroke: rgb(255, 255, 255); fill: rgb(247, 162, 162); fill-rule: evenodd;"></path><text transform="rotate(-74.92146596858639)" x="211.75" dx="6" dy=".35em" style="font-size: 11px; font-family: Arial, Helvetica;">Other</text><title>Other: none</title></g><g><path d="M2.2457680679999903e-14,-366.76175850270977A366.76175850270977,366.76175850270977 0 0,1 24.112774206471688,-365.96825220238395L19.687997696266393,-298.81182665134224A299.45972183250285,299.45972183250285 0 0,0 1.833661949078657e-14,-299.45972183250285Z" style="stroke: rgb(255, 255, 255); fill: rgb(247, 162, 162); fill-rule: evenodd;"></path><text transform="rotate(-88.1151832460733)" x="299.45972183250285" dx="6" dy=".35em" style="font-size: 11px; font-family: Arial, Helvetica;">1 to 20</text><title>1 to 20: 1</title></g><g><path d="M2.5931895971945205e-14,-423.5A423.5,423.5 0 0,1 13.929052757706872,-423.2708724791644L12.062913538827841,-366.56332824896A366.76175850270977,366.76175850270977 0 0,0 2.2457680679999903e-14,-366.76175850270977Z" style="stroke: rgb(255, 255, 255); fill: rgb(247, 162, 162); fill-rule: evenodd;"></path><text transform="rotate(-89.05759162303666)" x="366.76175850270977" dx="6" dy=".35em" style="font-size: 11px; font-family: Arial, Helvetica;">No</text><title>No: 1</title></g><g><path d="M13.929052757706872,-423.2708724791644A423.5,423.5 0 0,1 27.843033358030187,-422.58373784780645L24.112774206471688,-365.96825220238395A366.76175850270977,366.76175850270977 0 0,0 12.062913538827841,-366.56332824896Z" style="stroke: rgb(255, 255, 255); fill: rgb(247, 162, 162); fill-rule: evenodd;"></path><text transform="rotate(-87.17277486910996)" x="366.76175850270977" dx="6" dy=".35em" style="font-size: 11px; font-family: Arial, Helvetica;">Yes</text><title>Yes: 1</title></g><g><path d="M24.112774206471688,-365.96825220238395A366.76175850270977,366.76175850270977 0 0,1 71.92142113946937,-359.64078840042475L58.72359445583982,-293.6454740910986A299.45972183250285,299.45972183250285 0 0,0 19.687997696266393,-298.81182665134224Z" style="stroke: rgb(255, 255, 255); fill: rgb(247, 236, 164); fill-rule: evenodd;"></path><text transform="rotate(-82.4607329842932)" x="299.45972183250285" dx="6" dy=".35em" style="font-size: 11px; font-family: Arial, Helvetica;">21 to 50</text><title>21 to 50: none</title></g><g><path d="M27.843033358030187,-422.58373784780645A423.5,423.5 0 0,1 83.04770371074618,-415.27741198910894L71.92142113946937,-359.64078840042475A366.76175850270977,366.76175850270977 0 0,0 24.112774206471688,-365.96825220238395Z" style="stroke: rgb(255, 255, 255); fill: rgb(247, 236, 164); fill-rule: evenodd;"></path><text transform="rotate(-82.4607329842932)" x="366.76175850270977" dx="6" dy=".35em" style="font-size: 11px; font-family: Arial, Helvetica;">Yes</text><title>Yes: 4</title></g><g><path d="M71.92142113946937,-359.64078840042475A366.76175850270977,366.76175850270977 0 0,1 141.05001953897346,-338.55439664558367L115.16685869336077,-276.42850731916826A299.45972183250285,299.45972183250285 0 0,0 58.72359445583982,-293.6454740910986Z" style="stroke: rgb(255, 255, 255); fill: rgb(158, 227, 128); fill-rule: evenodd;"></path><text transform="rotate(-73.03664921465969)" x="299.45972183250285" dx="6" dy=".35em" style="font-size: 11px; font-family: Arial, Helvetica;">Cant Say</text><title>Cant Say: none</title></g><g><path d="M83.04770371074618,-415.27741198910894A423.5,423.5 0 0,1 162.87053350005658,-390.92894407731814L141.05001953897346,-338.55439664558367A366.76175850270977,366.76175850270977 0 0,0 71.92142113946937,-359.64078840042475Z" style="stroke: rgb(255, 255, 255); fill: rgb(158, 227, 128); fill-rule: evenodd;"></path><text transform="rotate(-73.03664921465969)" x="366.76175850270977" dx="6" dy=".35em" style="font-size: 11px; font-family: Arial, Helvetica;">Yes</text><title>Yes: 6</title></g><g><path d="M141.05001953897346,-338.55439664558367A366.76175850270977,366.76175850270977 0 0,1 163.0031306720101,-328.54857615141725L133.09149887421157,-268.2587890963048A299.45972183250285,299.45972183250285 0 0,0 115.16685869336077,-276.42850731916826Z" style="stroke: rgb(255, 255, 255); fill: rgb(205, 242, 226); fill-rule: evenodd;"></path><text transform="rotate(-65.49738219895288)" x="299.45972183250285" dx="6" dy=".35em" style="font-size: 11px; font-family: Arial, Helvetica;">201+</text><title>201+: none</title></g><g><path d="M162.87053350005658,-390.92894407731814A423.5,423.5 0 0,1 175.64019528284174,-385.36057375009864L152.10887104060066,-333.73204648453213A366.76175850270977,366.76175850270977 0 0,0 141.05001953897346,-338.55439664558367Z" style="stroke: rgb(255, 255, 255); fill: rgb(205, 242, 226); fill-rule: evenodd;"></path><text transform="rotate(-66.43979057591622)" x="366.76175850270977" dx="6" dy=".35em" style="font-size: 11px; font-family: Arial, Helvetica;">No</text><title>No: 1</title></g><g><path d="M175.64019528284174,-385.36057375009864A423.5,423.5 0 0,1 188.21980274447353,-379.375217765778L163.0031306720101,-328.54857615141725A366.76175850270977,366.76175850270977 0 0,0 152.10887104060066,-333.73204648453213Z" style="stroke: rgb(255, 255, 255); fill: rgb(205, 242, 226); fill-rule: evenodd;"></path><text transform="rotate(-64.55497382198952)" x="366.76175850270977" dx="6" dy=".35em" style="font-size: 11px; font-family: Arial, Helvetica;">Yes</text><title>Yes: 1</title></g><g><path d="M163.0031306720101,-328.54857615141725A366.76175850270977,366.76175850270977 0 0,1 173.7210101229268,-323.0095945043583L141.8426108006806,-263.73622951965973A299.45972183250285,299.45972183250285 0 0,0 133.09149887421157,-268.2587890963048Z" style="stroke: rgb(255, 255, 255); fill: rgb(143, 194, 232); fill-rule: evenodd;"></path><text transform="rotate(-62.67015706806283)" x="299.45972183250285" dx="6" dy=".35em" style="font-size: 11px; font-family: Arial, Helvetica;">51 to 100</text><title>51 to 100: none</title></g><g><path d="M188.21980274447353,-379.375217765778A423.5,423.5 0 0,1 200.59574391673098,-372.97935267584626L173.7210101229268,-323.0095945043583A366.76175850270977,366.76175850270977 0 0,0 163.0031306720101,-328.54857615141725Z" style="stroke: rgb(255, 255, 255); fill: rgb(143, 194, 232); fill-rule: evenodd;"></path><text transform="rotate(-62.67015706806283)" x="366.76175850270977" dx="6" dy=".35em" style="font-size: 11px; font-family: Arial, Helvetica;">Yes</text><title>Yes: 1</title></g><g><path d="M173.7210101229268,-323.0095945043583A366.76175850270977,366.76175850270977 0 0,1 184.25091193811014,-317.12109508825614L150.44023963028246,-258.9282898796174A299.45972183250285,299.45972183250285 0 0,0 141.8426108006806,-263.73622951965973Z" style="stroke: rgb(255, 255, 255); fill: rgb(175, 152, 232); fill-rule: evenodd;"></path><text transform="rotate(-60.78534031413612)" x="299.45972183250285" dx="6" dy=".35em" style="font-size: 11px; font-family: Arial, Helvetica;">101 to 200</text><title>101 to 200: none</title></g><g><path d="M200.59574391673098,-372.97935267584626A423.5,423.5 0 0,1 212.75462721180384,-366.1798992298272L184.25091193811014,-317.12109508825614A366.76175850270977,366.76175850270977 0 0,0 173.7210101229268,-323.0095945043583Z" style="stroke: rgb(255, 255, 255); fill: rgb(175, 152, 232); fill-rule: evenodd;"></path><text transform="rotate(-60.78534031413612)" x="366.76175850270977" dx="6" dy=".35em" style="font-size: 11px; font-family: Arial, Helvetica;">Yes</text><title>Yes: 1</title></g><g><path d="M150.44023963028246,-258.9282898796174A299.45972183250285,299.45972183250285 0 0,1 285.7024835360063,89.72299538779372L202.022163510148,63.44373846707827A211.75,211.75 0 0,0 106.37731360590192,-183.0899496149136Z" style="stroke: rgb(255, 255, 255); fill: rgb(158, 227, 128); fill-rule: evenodd;"></path><text transform="rotate(-21.204188481675388)" x="211.75" dx="6" dy=".35em" style="font-size: 11px; font-family: Arial, Helvetica;">Food &amp; Beverage</text><title>Food &amp; Beverage: none</title></g><g><path d="M184.25091193811014,-317.12109508825614A366.76175850270977,366.76175850270977 0 0,1 214.5999018218516,-297.4240569255481L175.2200861049675,-242.84572556536335A299.45972183250285,299.45972183250285 0 0,0 150.44023963028246,-258.9282898796174Z" style="stroke: rgb(255, 255, 255); fill: rgb(158, 227, 128); fill-rule: evenodd;"></path><text transform="rotate(-57.01570680628273)" x="299.45972183250285" dx="6" dy=".35em" style="font-size: 11px; font-family: Arial, Helvetica;">Cant Say</text><title>Cant Say: none</title></g><g><path d="M212.75462721180384,-366.1798992298272A423.5,423.5 0 0,1 224.68329591287753,-358.9842148865689L194.5814420665683,-310.88944964938054A366.76175850270977,366.76175850270977 0 0,0 184.25091193811014,-317.12109508825614Z" style="stroke: rgb(255, 255, 255); fill: rgb(158, 227, 128); fill-rule: evenodd;"></path><text transform="rotate(-58.90052356020942)" x="366.76175850270977" dx="6" dy=".35em" style="font-size: 11px; font-family: Arial, Helvetica;">No</text><title>No: 1</title></g><g><path d="M224.68329591287753,-358.9842148865689A423.5,423.5 0 0,1 247.79862216982656,-343.4357186588715L214.5999018218516,-297.4240569255481A366.76175850270977,366.76175850270977 0 0,0 194.5814420665683,-310.88944964938054Z" style="stroke: rgb(255, 255, 255); fill: rgb(158, 227, 128); fill-rule: evenodd;"></path><text transform="rotate(-56.073298429319365)" x="366.76175850270977" dx="6" dy=".35em" style="font-size: 11px; font-family: Arial, Helvetica;">Yes</text><title>Yes: 2</title></g><g><path d="M214.5999018218516,-297.4240569255481A366.76175850270977,366.76175850270977 0 0,1 312.47916846641743,-192.01811574571897L255.1381726639687,-156.78213498256386A299.45972183250285,299.45972183250285 0 0,0 175.2200861049675,-242.84572556536335Z" style="stroke: rgb(255, 255, 255); fill: rgb(247, 236, 164); fill-rule: evenodd;"></path><text transform="rotate(-42.879581151832454)" x="299.45972183250285" dx="6" dy=".35em" style="font-size: 11px; font-family: Arial, Helvetica;">21 to 50</text><title>21 to 50: none</title></g><g><path d="M247.79862216982656,-343.4357186588715A423.5,423.5 0 0,1 337.21808101070326,-256.19565929082165L292.03942477070785,-221.87194928515427A366.76175850270977,366.76175850270977 0 0,0 214.5999018218516,-297.4240569255481Z" style="stroke: rgb(255, 255, 255); fill: rgb(247, 236, 164); fill-rule: evenodd;"></path><text transform="rotate(-45.70680628272252)" x="366.76175850270977" dx="6" dy=".35em" style="font-size: 11px; font-family: Arial, Helvetica;">Yes</text><title>Yes: 9</title></g><g><path d="M337.21808101070326,-256.19565929082165A423.5,423.5 0 0,1 345.461993434964,-244.96583658122802L299.1788623566918,-212.14663753865082A366.76175850270977,366.76175850270977 0 0,0 292.03942477070785,-221.87194928515427Z" style="stroke: rgb(255, 255, 255); fill: rgb(247, 236, 164); fill-rule: evenodd;"></path><text transform="rotate(-36.282722513089006)" x="366.76175850270977" dx="6" dy=".35em" style="font-size: 11px; font-family: Arial, Helvetica;">No</text><title>No: 1</title></g><g><path d="M345.461993434964,-244.96583658122802A423.5,423.5 0 0,1 360.8198640604731,-221.72342163015102L312.47916846641743,-192.0181157457189A366.76175850270977,366.76175850270977 0 0,0 299.1788623566918,-212.14663753865082Z" style="stroke: rgb(255, 255, 255); fill: rgb(247, 236, 164); fill-rule: evenodd;"></path><text transform="rotate(-33.45549738219895)" x="366.76175850270977" dx="6" dy=".35em" style="font-size: 11px; font-family: Arial, Helvetica;">-</text><title>-: 2</title></g><g><path d="M312.47916846641743,-192.01811574571897A366.76175850270977,366.76175850270977 0 0,1 339.702938994247,-138.2609877683177L277.3662882199026,-112.88962378852155A299.45972183250285,299.45972183250285 0 0,0 255.1381726639687,-156.78213498256386Z" style="stroke: rgb(255, 255, 255); fill: rgb(175, 152, 232); fill-rule: evenodd;"></path><text transform="rotate(-26.8586387434555)" x="299.45972183250285" dx="6" dy=".35em" style="font-size: 11px; font-family: Arial, Helvetica;">101 to 200</text><title>101 to 200: none</title></g><g><path d="M360.81986406047304,-221.7234216301511A423.5,423.5 0 0,1 380.91030262767873,-185.09346652999454L329.8779986387882,-160.2956440895A366.76175850270977,366.76175850270977 0 0,0 312.47916846641743,-192.01811574571897Z" style="stroke: rgb(255, 255, 255); fill: rgb(175, 152, 232); fill-rule: evenodd;"></path><text transform="rotate(-28.743455497382204)" x="366.76175850270977" dx="6" dy=".35em" style="font-size: 11px; font-family: Arial, Helvetica;">Yes</text><title>Yes: 3</title></g><g><path d="M380.91030262767873,-185.09346652999454A423.5,423.5 0 0,1 392.25516654567105,-159.65003701292358L339.702938994247,-138.2609877683177A366.76175850270977,366.76175850270977 0 0,0 329.8779986387882,-160.2956440895Z" style="stroke: rgb(255, 255, 255); fill: rgb(175, 152, 232); fill-rule: evenodd;"></path><text transform="rotate(-24.03141361256545)" x="366.76175850270977" dx="6" dy=".35em" style="font-size: 11px; font-family: Arial, Helvetica;">No</text><title>No: 2</title></g><g><path d="M339.702938994247,-138.2609877683177A366.76175850270977,366.76175850270977 0 0,1 362.293375036401,-57.076246414192944L295.8113020099878,-46.60256004937692A299.45972183250285,299.45972183250285 0 0,0 277.3662882199026,-112.88962378852155Z" style="stroke: rgb(255, 255, 255); fill: rgb(143, 194, 232); fill-rule: evenodd;"></path><text transform="rotate(-15.54973821989529)" x="299.45972183250285" dx="6" dy=".35em" style="font-size: 11px; font-family: Arial, Helvetica;">51 to 100</text><title>51 to 100: none</title></g><g><path d="M392.25516654567105,-159.65003701292358A423.5,423.5 0 0,1 409.8111736538101,-106.80380118931471L354.90688713891564,-92.49480505068918A366.76175850270977,366.76175850270977 0 0,0 339.702938994247,-138.2609877683177Z" style="stroke: rgb(255, 255, 255); fill: rgb(143, 194, 232); fill-rule: evenodd;"></path><text transform="rotate(-18.37696335078534)" x="366.76175850270977" dx="6" dy=".35em" style="font-size: 11px; font-family: Arial, Helvetica;">Yes</text><title>Yes: 4</title></g><g><path d="M409.8111736538101,-106.80380118931471A423.5,423.5 0 0,1 413.1022640038918,-93.26719399048586L357.7570549882361,-80.77175933545209A366.76175850270977,366.76175850270977 0 0,0 354.90688713891564,-92.49480505068918Z" style="stroke: rgb(255, 255, 255); fill: rgb(143, 194, 232); fill-rule: evenodd;"></path><text transform="rotate(-13.664921465968597)" x="366.76175850270977" dx="6" dy=".35em" style="font-size: 11px; font-family: Arial, Helvetica;">No</text><title>No: 1</title></g><g><path d="M413.1022640038918,-93.26719399048586A423.5,423.5 0 0,1 418.3403552057684,-65.90597246313541L362.293375036401,-57.076246414192944A366.76175850270977,366.76175850270977 0 0,0 357.7570549882361,-80.77175933545209Z" style="stroke: rgb(255, 255, 255); fill: rgb(143, 194, 232); fill-rule: evenodd;"></path><text transform="rotate(-10.837696335078535)" x="366.76175850270977" dx="6" dy=".35em" style="font-size: 11px; font-family: Arial, Helvetica;">-</text><title>-: 2</title></g><g><path d="M362.293375036401,-57.076246414192944A366.76175850270977,366.76175850270977 0 0,1 366.45172695878085,15.07711208843108L299.2065821369052,12.310410470468064A299.45972183250285,299.45972183250285 0 0,0 295.8113020099878,-46.60256004937692Z" style="stroke: rgb(255, 255, 255); fill: rgb(240, 227, 238); fill-rule: evenodd;"></path><text transform="rotate(-3.2984293193717296)" x="299.45972183250285" dx="6" dy=".35em" style="font-size: 11px; font-family: Arial, Helvetica;">200+</text><title>200+: none</title></g><g><path d="M418.3403552057684,-65.90597246313541A423.5,423.5 0 0,1 420.28168809604745,-52.11096478800505L363.974618636585,-45.12941932212873A366.76175850270977,366.76175850270977 0 0,0 362.293375036401,-57.076246414192944Z" style="stroke: rgb(255, 255, 255); fill: rgb(240, 227, 238); fill-rule: evenodd;"></path><text transform="rotate(-8.010471204188484)" x="366.76175850270977" dx="6" dy=".35em" style="font-size: 11px; font-family: Arial, Helvetica;">No</text><title>No: 1</title></g><g><path d="M420.28168809604745,-52.11096478800505A423.5,423.5 0 0,1 423.14200640931074,17.40954944571569L366.45172695878085,15.07711208843108A366.76175850270977,366.76175850270977 0 0,0 363.974618636585,-45.12941932212873Z" style="stroke: rgb(255, 255, 255); fill: rgb(240, 227, 238); fill-rule: evenodd;"></path><text transform="rotate(-2.356020942408371)" x="366.76175850270977" dx="6" dy=".35em" style="font-size: 11px; font-family: Arial, Helvetica;">Yes</text><title>Yes: 5</title></g><g><path d="M366.45172695878085,15.07711208843108A366.76175850270977,366.76175850270977 0 0,1 356.3801776926762,86.6450024394745L290.9831965964856,70.7453482463054A299.45972183250285,299.45972183250285 0 0,0 299.2065821369052,12.310410470468064Z" style="stroke: rgb(255, 255, 255); fill: rgb(205, 242, 226); fill-rule: evenodd;"></path><text transform="rotate(8.010471204188484)" x="299.45972183250285" dx="6" dy=".35em" style="font-size: 11px; font-family: Arial, Helvetica;">201+</text><title>201+: none</title></g><g><path d="M423.14200640931074,17.40954944571569A423.5,423.5 0 0,1 419.3677484465363,59.01645162903842L363.1831236825825,51.10974635196279A366.76175850270977,366.76175850270977 0 0,0 366.45172695878085,15.07711208843108Z" style="stroke: rgb(255, 255, 255); fill: rgb(205, 242, 226); fill-rule: evenodd;"></path><text transform="rotate(5.183246073298434)" x="366.76175850270977" dx="6" dy=".35em" style="font-size: 11px; font-family: Arial, Helvetica;">Yes</text><title>Yes: 3</title></g><g><path d="M419.3677484465363,59.01645162903842A423.5,423.5 0 0,1 414.58038639899894,86.46012498982819L359.0371465323017,74.87666465556899A366.76175850270977,366.76175850270977 0 0,0 363.1831236825825,51.10974635196279Z" style="stroke: rgb(255, 255, 255); fill: rgb(205, 242, 226); fill-rule: evenodd;"></path><text transform="rotate(9.895287958115187)" x="366.76175850270977" dx="6" dy=".35em" style="font-size: 11px; font-family: Arial, Helvetica;">No</text><title>No: 2</title></g><g><path d="M414.58038639899894,86.46012498982819A423.5,423.5 0 0,1 411.51238304942655,100.04903096473276L356.3801776926762,86.6450024394745A366.76175850270977,366.76175850270977 0 0,0 359.0371465323017,74.87666465556899Z" style="stroke: rgb(255, 255, 255); fill: rgb(205, 242, 226); fill-rule: evenodd;"></path><text transform="rotate(12.72251308900524)" x="366.76175850270977" dx="6" dy=".35em" style="font-size: 11px; font-family: Arial, Helvetica;">-</text><title>-: 1</title></g><g><path d="M356.3801776926762,86.6450024394745A366.76175850270977,366.76175850270977 0 0,1 349.91265145456356,109.8877784470917L285.70248353600624,89.72299538779383A299.45972183250285,299.45972183250285 0 0,0 290.9831965964856,70.7453482463054Z" style="stroke: rgb(255, 255, 255); fill: rgb(247, 162, 162); fill-rule: evenodd;"></path><text transform="rotate(15.549738219895302)" x="299.45972183250285" dx="6" dy=".35em" style="font-size: 11px; font-family: Arial, Helvetica;">1 to 20</text><title>1 to 20: none</title></g><g><path d="M411.51238304942655,100.04903096473276A423.5,423.5 0 0,1 404.0443270202959,126.88747693415671L349.91265145456356,109.8877784470917A366.76175850270977,366.76175850270977 0 0,0 356.3801776926762,86.6450024394745Z" style="stroke: rgb(255, 255, 255); fill: rgb(247, 162, 162); fill-rule: evenodd;"></path><text transform="rotate(15.549738219895302)" x="366.76175850270977" dx="6" dy=".35em" style="font-size: 11px; font-family: Arial, Helvetica;">Yes</text><title>Yes: 2</title></g><g><path d="M285.7024835360063,89.72299538779372A299.45972183250285,299.45972183250285 0 0,1 -154.67858386861542,256.41891640906624L-109.3742755578301,181.31555461735724A211.75,211.75 0 0,0 202.022163510148,63.44373846707827Z" style="stroke: rgb(255, 255, 255); fill: rgb(247, 236, 164); fill-rule: evenodd;"></path><text transform="rotate(69.26701570680626)" x="211.75" dx="6" dy=".35em" style="font-size: 11px; font-family: Arial, Helvetica;">Apparel and Accessories</text><title>Apparel and Accessories: none</title></g><g><path d="M349.9126514545636,109.88777844709156A366.76175850270977,366.76175850270977 0 0,1 247.3479246994793,270.80101854841814L201.95873481669346,221.1081057565291A299.45972183250285,299.45972183250285 0 0,0 285.7024835360063,89.72299538779372Z" style="stroke: rgb(255, 255, 255); fill: rgb(247, 236, 164); fill-rule: evenodd;"></path><text transform="rotate(32.513089005235585)" x="299.45972183250285" dx="6" dy=".35em" style="font-size: 11px; font-family: Arial, Helvetica;">21 to 50</text><title>21 to 50: none</title></g><g><path d="M404.044327020296,126.88747693415654A423.5,423.5 0 0,1 394.82793321238285,153.1768688648457L341.93102028562924,132.655059709114A366.76175850270977,366.76175850270977 0 0,0 349.9126514545636,109.88777844709156Z" style="stroke: rgb(255, 255, 255); fill: rgb(247, 236, 164); fill-rule: evenodd;"></path><text transform="rotate(19.319371727748685)" x="366.76175850270977" dx="6" dy=".35em" style="font-size: 11px; font-family: Arial, Helvetica;">No</text><title>No: 2</title></g><g><path d="M394.82793321238285,153.1768688648457A423.5,423.5 0 0,1 295.74286591512106,303.13100676161577L256.1208348705098,262.5191525303117A366.76175850270977,366.76175850270977 0 0,0 341.93102028562924,132.655059709114Z" style="stroke: rgb(255, 255, 255); fill: rgb(247, 236, 164); fill-rule: evenodd;"></path><text transform="rotate(33.45549738219895)" x="366.76175850270977" dx="6" dy=".35em" style="font-size: 11px; font-family: Arial, Helvetica;">Yes</text><title>Yes: 13</title></g><g><path d="M295.74286591512106,303.13100676161577A423.5,423.5 0 0,1 285.61278181747934,312.6940819115081L247.3479246994793,270.80101854841814A366.76175850270977,366.76175850270977 0 0,0 256.1208348705098,262.5191525303117Z" style="stroke: rgb(255, 255, 255); fill: rgb(247, 236, 164); fill-rule: evenodd;"></path><text transform="rotate(46.64921465968587)" x="366.76175850270977" dx="6" dy=".35em" style="font-size: 11px; font-family: Arial, Helvetica;">-</text><title>-: 1</title></g><g><path d="M247.3479246994793,270.80101854841814A366.76175850270977,366.76175850270977 0 0,1 -6.032272739416541,366.7121475839017L-4.925330066957133,299.41921468691936A299.45972183250285,299.45972183250285 0 0,0 201.95873481669346,221.1081057565291Z" style="stroke: rgb(255, 255, 255); fill: rgb(247, 162, 162); fill-rule: evenodd;"></path><text transform="rotate(69.26701570680626)" x="299.45972183250285" dx="6" dy=".35em" style="font-size: 11px; font-family: Arial, Helvetica;">1 to 20</text><title>1 to 20: none</title></g><g><path d="M285.61278181747934,312.6940819115081A423.5,423.5 0 0,1 6.965468579855002,423.4427142453428L6.032272739416748,366.7121475839017A366.76175850270977,366.76175850270977 0 0,0 247.3479246994793,270.80101854841814Z" style="stroke: rgb(255, 255, 255); fill: rgb(247, 162, 162); fill-rule: evenodd;"></path><text transform="rotate(68.3246073298429)" x="366.76175850270977" dx="6" dy=".35em" style="font-size: 11px; font-family: Arial, Helvetica;">Yes</text><title>Yes: 22</title></g><g><path d="M6.965468579855002,423.4427142453428A423.5,423.5 0 0,1 -6.965468579854762,423.4427142453428L-6.032272739416541,366.7121475839017A366.76175850270977,366.76175850270977 0 0,0 6.032272739416748,366.7121475839017Z" style="stroke: rgb(255, 255, 255); fill: rgb(247, 162, 162); fill-rule: evenodd;"></path><text transform="rotate(90)" x="366.76175850270977" dx="6" dy=".35em" style="font-size: 11px; font-family: Arial, Helvetica;">No</text><title>No: 1</title></g><g><path d="M-6.032272739416541,366.7121475839017A366.76175850270977,366.76175850270977 0 0,1 -101.2220979990374,352.51705544083006L-82.64749693054526,287.8289704861474A299.45972183250285,299.45972183250285 0 0,0 -4.925330066957133,299.41921468691936Z" style="stroke: rgb(255, 255, 255); fill: rgb(158, 227, 128); fill-rule: evenodd;"></path><text transform="rotate(98.48167539267016)" x="299.45972183250285" dx="6" dy=".35em" style="font-size: 11px; font-family: Arial, Helvetica;">Cant Say</text><title>Cant Say: none</title></g><g><path d="M-6.965468579854762,423.4427142453428A423.5,423.5 0 0,1 -116.88121105536585,407.0516337053949L-101.2220979990374,352.51705544083006A366.76175850270977,366.76175850270977 0 0,0 -6.032272739416541,366.7121475839017Z" style="stroke: rgb(255, 255, 255); fill: rgb(158, 227, 128); fill-rule: evenodd;"></path><text transform="rotate(98.48167539267016)" x="366.76175850270977" dx="6" dy=".35em" style="font-size: 11px; font-family: Arial, Helvetica;">Yes</text><title>Yes: 8</title></g><g><path d="M-101.2220979990374,352.51705544083006A366.76175850270977,366.76175850270977 0 0,1 -179.01017527604847,320.10864506857416L-146.16119606416652,261.3676142238978A299.45972183250285,299.45972183250285 0 0,0 -82.64749693054526,287.8289704861474Z" style="stroke: rgb(255, 255, 255); fill: rgb(143, 194, 232); fill-rule: evenodd;"></path><text transform="rotate(112.61780104712041)" x="299.45972183250285" dx="6" dy=".35em" style="font-size: 11px; font-family: Arial, Helvetica;">51 to 100</text><title>51 to 100: none</title></g><g><path d="M-116.88121105536585,407.0516337053949A423.5,423.5 0 0,1 -206.70314576661735,369.62962480053534L-179.01017527604847,320.10864506857416A366.76175850270977,366.76175850270977 0 0,0 -101.2220979990374,352.51705544083006Z" style="stroke: rgb(255, 255, 255); fill: rgb(143, 194, 232); fill-rule: evenodd;"></path><text transform="rotate(112.61780104712041)" x="366.76175850270977" dx="6" dy=".35em" style="font-size: 11px; font-family: Arial, Helvetica;">Yes</text><title>Yes: 7</title></g><g><path d="M-179.01017527604847,320.10864506857416A366.76175850270977,366.76175850270977 0 0,1 -189.4418023072004,314.04775279979253L-154.6785838686153,256.4189164090663A299.45972183250285,299.45972183250285 0 0,0 -146.16119606416652,261.3676142238978Z" style="stroke: rgb(255, 255, 255); fill: rgb(175, 152, 232); fill-rule: evenodd;"></path><text transform="rotate(120.15706806282722)" x="299.45972183250285" dx="6" dy=".35em" style="font-size: 11px; font-family: Arial, Helvetica;">101 to 200</text><title>101 to 200: none</title></g><g><path d="M-206.70314576661735,369.62962480053534A423.5,423.5 0 0,1 -218.74855111566,362.63110923471453L-189.4418023072004,314.04775279979253A366.76175850270977,366.76175850270977 0 0,0 -179.01017527604847,320.10864506857416Z" style="stroke: rgb(255, 255, 255); fill: rgb(175, 152, 232); fill-rule: evenodd;"></path><text transform="rotate(120.15706806282722)" x="366.76175850270977" dx="6" dy=".35em" style="font-size: 11px; font-family: Arial, Helvetica;">Yes</text><title>Yes: 1</title></g><g><path d="M-154.67858386861542,256.41891640906624A299.45972183250285,299.45972183250285 0 0,1 -296.53777873748004,41.7309331484609L-209.68387422326816,29.508225814519186A211.75,211.75 0 0,0 -109.3742755578301,181.31555461735724Z" style="stroke: rgb(255, 255, 255); fill: rgb(143, 194, 232); fill-rule: evenodd;"></path><text transform="rotate(146.54450261780104)" x="211.75" dx="6" dy=".35em" style="font-size: 11px; font-family: Arial, Helvetica;">Book &amp; Stationery</text><title>Book &amp; Stationery: none</title></g><g><path d="M-189.44180230720053,314.0477527997925A366.76175850270977,366.76175850270977 0 0,1 -247.3479246994792,270.80101854841826L-201.95873481669338,221.1081057565292A299.45972183250285,299.45972183250285 0 0,0 -154.67858386861542,256.41891640906624Z" style="stroke: rgb(255, 255, 255); fill: rgb(143, 194, 232); fill-rule: evenodd;"></path><text transform="rotate(126.75392670157066)" x="299.45972183250285" dx="6" dy=".35em" style="font-size: 11px; font-family: Arial, Helvetica;">51 to 100</text><title>51 to 100: none</title></g><g><path d="M-218.7485511156602,362.6311092347145A423.5,423.5 0 0,1 -275.17364577831773,321.9188013600152L-238.3073676960037,278.7898599336097A366.76175850270977,366.76175850270977 0 0,0 -189.44180230720053,314.0477527997925Z" style="stroke: rgb(255, 255, 255); fill: rgb(143, 194, 232); fill-rule: evenodd;"></path><text transform="rotate(125.81151832460733)" x="366.76175850270977" dx="6" dy=".35em" style="font-size: 11px; font-family: Arial, Helvetica;">Yes</text><title>Yes: 5</title></g><g><path d="M-275.17364577831773,321.9188013600152A423.5,423.5 0 0,1 -285.6127818174792,312.69408191150825L-247.3479246994792,270.80101854841826A366.76175850270977,366.76175850270977 0 0,0 -238.3073676960037,278.7898599336097Z" style="stroke: rgb(255, 255, 255); fill: rgb(143, 194, 232); fill-rule: evenodd;"></path><text transform="rotate(131.46596858638745)" x="366.76175850270977" dx="6" dy=".35em" style="font-size: 11px; font-family: Arial, Helvetica;">No</text><title>No: 1</title></g><g><path d="M-247.3479246994792,270.80101854841826A366.76175850270977,366.76175850270977 0 0,1 -315.5950965585295,186.8526759996025L-257.68231729759486,152.5645710908716A299.45972183250285,299.45972183250285 0 0,0 -201.95873481669338,221.1081057565292Z" style="stroke: rgb(255, 255, 255); fill: rgb(247, 236, 164); fill-rule: evenodd;"></path><text transform="rotate(140.89005235602096)" x="299.45972183250285" dx="6" dy=".35em" style="font-size: 11px; font-family: Arial, Helvetica;">21 to 50</text><title>21 to 50: none</title></g><g><path d="M-285.6127818174792,312.69408191150825A423.5,423.5 0 0,1 -357.12428586687037,227.62797377316753L-309.2787038690857,197.13160789954102A366.76175850270977,366.76175850270977 0 0,0 -247.3479246994792,270.80101854841826Z" style="stroke: rgb(255, 255, 255); fill: rgb(247, 236, 164); fill-rule: evenodd;"></path><text transform="rotate(139.9476439790576)" x="366.76175850270977" dx="6" dy=".35em" style="font-size: 11px; font-family: Arial, Helvetica;">Yes</text><title>Yes: 8</title></g><g><path d="M-357.12428586687037,227.62797377316753A423.5,423.5 0 0,1 -364.4178279059861,215.75888557434453L-315.5950965585297,186.8526759996022A366.76175850270977,366.76175850270977 0 0,0 -309.2787038690857,197.13160789954102Z" style="stroke: rgb(255, 255, 255); fill: rgb(247, 236, 164); fill-rule: evenodd;"></path><text transform="rotate(148.42931937172776)" x="366.76175850270977" dx="6" dy=".35em" style="font-size: 11px; font-family: Arial, Helvetica;">No</text><title>No: 1</title></g><g><path d="M-315.5950965585295,186.8526759996025A366.76175850270977,366.76175850270977 0 0,1 -332.46982145412744,154.84833005964458L-271.46047247894654,126.4331320560678A299.45972183250285,299.45972183250285 0 0,0 -257.68231729759486,152.5645710908716Z" style="stroke: rgb(255, 255, 255); fill: rgb(158, 227, 128); fill-rule: evenodd;"></path><text transform="rotate(152.19895287958116)" x="299.45972183250285" dx="6" dy=".35em" style="font-size: 11px; font-family: Arial, Helvetica;">Cant Say</text><title>Cant Say: none</title></g><g><path d="M-364.4178279059859,215.75888557434484A423.5,423.5 0 0,1 -383.90308182793456,178.80345008699962L-332.46982145412744,154.84833005964458A366.76175850270977,366.76175850270977 0 0,0 -315.5950965585295,186.8526759996025Z" style="stroke: rgb(255, 255, 255); fill: rgb(158, 227, 128); fill-rule: evenodd;"></path><text transform="rotate(152.19895287958116)" x="366.76175850270977" dx="6" dy=".35em" style="font-size: 11px; font-family: Arial, Helvetica;">Yes</text><title>Yes: 3</title></g><g><path d="M-332.46982145412744,154.84833005964458A366.76175850270977,366.76175850270977 0 0,1 -337.3829562189472,143.82951141182392L-275.472030216059,117.43630430425956A299.45972183250285,299.45972183250285 0 0,0 -271.46047247894654,126.4331320560678Z" style="stroke: rgb(255, 255, 255); fill: rgb(175, 152, 232); fill-rule: evenodd;"></path><text transform="rotate(155.96858638743456)" x="299.45972183250285" dx="6" dy=".35em" style="font-size: 11px; font-family: Arial, Helvetica;">101 to 200</text><title>101 to 200: none</title></g><g><path d="M-383.90308182793456,178.80345008699962A423.5,423.5 0 0,1 -389.5762811860018,166.08001426205777L-337.3829562189472,143.82951141182392A366.76175850270977,366.76175850270977 0 0,0 -332.46982145412744,154.84833005964458Z" style="stroke: rgb(255, 255, 255); fill: rgb(175, 152, 232); fill-rule: evenodd;"></path><text transform="rotate(155.96858638743456)" x="366.76175850270977" dx="6" dy=".35em" style="font-size: 11px; font-family: Arial, Helvetica;">Yes</text><title>Yes: 1</title></g><g><path d="M-337.3829562189472,143.82951141182392A366.76175850270977,366.76175850270977 0 0,1 -349.91265145456356,109.88777844709176L-285.70248353600624,89.72299538779389A299.45972183250285,299.45972183250285 0 0,0 -275.472030216059,117.43630430425956Z" style="stroke: rgb(255, 255, 255); fill: rgb(205, 242, 226); fill-rule: evenodd;"></path><text transform="rotate(159.73821989528798)" x="299.45972183250285" dx="6" dy=".35em" style="font-size: 11px; font-family: Arial, Helvetica;">201+</text><title>201+: none</title></g><g><path d="M-389.5762811860018,166.08001426205777A423.5,423.5 0 0,1 -399.6523552718519,140.10797595305377L-346.1090923477074,121.33706644816381A366.76175850270977,366.76175850270977 0 0,0 -337.3829562189472,143.82951141182392Z" style="stroke: rgb(255, 255, 255); fill: rgb(205, 242, 226); fill-rule: evenodd;"></path><text transform="rotate(158.7958115183246)" x="366.76175850270977" dx="6" dy=".35em" style="font-size: 11px; font-family: Arial, Helvetica;">-</text><title>-: 2</title></g><g><path d="M-399.6523552718519,140.10797595305377A423.5,423.5 0 0,1 -404.0443270202959,126.88747693415677L-349.91265145456356,109.88777844709176A366.76175850270977,366.76175850270977 0 0,0 -346.1090923477074,121.33706644816381Z" style="stroke: rgb(255, 255, 255); fill: rgb(205, 242, 226); fill-rule: evenodd;"></path><text transform="rotate(161.62303664921464)" x="366.76175850270977" dx="6" dy=".35em" style="font-size: 11px; font-family: Arial, Helvetica;">Yes</text><title>Yes: 1</title></g><g><path d="M-349.91265145456356,109.88777844709176A366.76175850270977,366.76175850270977 0 0,1 -363.18312368258245,51.109746351963075L-296.53777873748,41.73093314846117A299.45972183250285,299.45972183250285 0 0,0 -285.70248353600624,89.72299538779389Z" style="stroke: rgb(255, 255, 255); fill: rgb(247, 162, 162); fill-rule: evenodd;"></path><text transform="rotate(167.27748691099475)" x="299.45972183250285" dx="6" dy=".35em" style="font-size: 11px; font-family: Arial, Helvetica;">1 to 20</text><title>1 to 20: none</title></g><g><path d="M-404.0443270202959,126.88747693415677A423.5,423.5 0 0,1 -419.36774844653627,59.01645162903875L-363.18312368258245,51.109746351963075A366.76175850270977,366.76175850270977 0 0,0 -349.91265145456356,109.88777844709176Z" style="stroke: rgb(255, 255, 255); fill: rgb(247, 162, 162); fill-rule: evenodd;"></path><text transform="rotate(167.27748691099475)" x="366.76175850270977" dx="6" dy=".35em" style="font-size: 11px; font-family: Arial, Helvetica;">Yes</text><title>Yes: 5</title></g><g><path d="M-296.53777873748004,41.7309331484609A299.45972183250285,299.45972183250285 0 0,1 -260.15674988395693,-148.30573316570153L-183.95860201439854,-104.86798961031022A211.75,211.75 0 0,0 -209.68387422326816,29.508225814519186Z" style="stroke: rgb(255, 255, 255); fill: rgb(143, 194, 232); fill-rule: evenodd;"></path><text transform="rotate(190.83769633507853)" x="211.75" dx="6" dy=".35em" style="font-size: 11px; font-family: Arial, Helvetica;">Medical</text><title>Medical: none</title></g><g><path d="M-363.1831236825825,51.10974635196275A366.76175850270977,366.76175850270977 0 0,1 -366.45172695878085,15.077112088431043L-299.2065821369052,12.310410470468032A299.45972183250285,299.45972183250285 0 0,0 -296.53777873748004,41.7309331484609Z" style="stroke: rgb(255, 255, 255); fill: rgb(143, 194, 232); fill-rule: evenodd;"></path><text transform="rotate(174.8167539267016)" x="299.45972183250285" dx="6" dy=".35em" style="font-size: 11px; font-family: Arial, Helvetica;">51 to 100</text><title>51 to 100: none</title></g><g><path d="M-419.3677484465363,59.01645162903837A423.5,423.5 0 0,1 -423.14200640931074,17.409549445715648L-366.45172695878085,15.077112088431043A366.76175850270977,366.76175850270977 0 0,0 -363.1831236825825,51.10974635196275Z" style="stroke: rgb(255, 255, 255); fill: rgb(143, 194, 232); fill-rule: evenodd;"></path><text transform="rotate(174.8167539267016)" x="366.76175850270977" dx="6" dy=".35em" style="font-size: 11px; font-family: Arial, Helvetica;">Yes</text><title>Yes: 3</title></g><g><path d="M-366.45172695878085,15.077112088431043A366.76175850270977,366.76175850270977 0 0,1 -366.6501370811012,-9.047899115800448L-299.36858332340114,-7.38757869263006A299.45972183250285,299.45972183250285 0 0,0 -299.2065821369052,12.310410470468032Z" style="stroke: rgb(255, 255, 255); fill: rgb(175, 152, 232); fill-rule: evenodd;"></path><text transform="rotate(179.52879581151834)" x="299.45972183250285" dx="6" dy=".35em" style="font-size: 11px; font-family: Arial, Helvetica;">101 to 200</text><title>101 to 200: none</title></g><g><path d="M-423.14200640931074,17.409549445715648A423.5,423.5 0 0,1 -423.37111068437395,-10.44761398021593L-366.6501370811012,-9.047899115800448A366.76175850270977,366.76175850270977 0 0,0 -366.45172695878085,15.077112088431043Z" style="stroke: rgb(255, 255, 255); fill: rgb(175, 152, 232); fill-rule: evenodd;"></path><text transform="rotate(179.52879581151834)" x="366.76175850270977" dx="6" dy=".35em" style="font-size: 11px; font-family: Arial, Helvetica;">Yes</text><title>Yes: 2</title></g><g><path d="M-366.6501370811012,-9.047899115800448A366.76175850270977,366.76175850270977 0 0,1 -363.974618636585,-45.12941932212861L-297.1840316612446,-36.848016575771666A299.45972183250285,299.45972183250285 0 0,0 -299.36858332340114,-7.38757869263006Z" style="stroke: rgb(255, 255, 255); fill: rgb(247, 236, 164); fill-rule: evenodd;"></path><text transform="rotate(184.2408376963351)" x="299.45972183250285" dx="6" dy=".35em" style="font-size: 11px; font-family: Arial, Helvetica;">21 to 50</text><title>21 to 50: none</title></g><g><path d="M-423.37111068437395,-10.44761398021593A423.5,423.5 0 0,1 -420.28168809604745,-52.11096478800491L-363.974618636585,-45.12941932212861A366.76175850270977,366.76175850270977 0 0,0 -366.6501370811012,-9.047899115800448Z" style="stroke: rgb(255, 255, 255); fill: rgb(247, 236, 164); fill-rule: evenodd;"></path><text transform="rotate(184.2408376963351)" x="366.76175850270977" dx="6" dy=".35em" style="font-size: 11px; font-family: Arial, Helvetica;">Yes</text><title>Yes: 3</title></g><g><path d="M-363.974618636585,-45.12941932212861A366.76175850270977,366.76175850270977 0 0,1 -318.6256451782808,-181.6366860926622L-260.15674988395705,-148.3057331657013A299.45972183250285,299.45972183250285 0 0,0 -297.1840316612446,-36.848016575771666Z" style="stroke: rgb(255, 255, 255); fill: rgb(205, 242, 226); fill-rule: evenodd;"></path><text transform="rotate(198.3769633507853)" x="299.45972183250285" dx="6" dy=".35em" style="font-size: 11px; font-family: Arial, Helvetica;">201+</text><title>201+: none</title></g><g><path d="M-420.28168809604745,-52.11096478800491A423.5,423.5 0 0,1 -409.81117365381016,-106.80380118931457L-354.90688713891564,-92.49480505068905A366.76175850270977,366.76175850270977 0 0,0 -363.974618636585,-45.12941932212861Z" style="stroke: rgb(255, 255, 255); fill: rgb(205, 242, 226); fill-rule: evenodd;"></path><text transform="rotate(190.83769633507848)" x="366.76175850270977" dx="6" dy=".35em" style="font-size: 11px; font-family: Arial, Helvetica;">No</text><title>No: 4</title></g><g><path d="M-409.81117365381016,-106.80380118931457A423.5,423.5 0 0,1 -374.61643322105544,-197.52158859409388L-324.42734784455075,-171.05871351834392A366.76175850270977,366.76175850270977 0 0,0 -354.90688713891564,-92.49480505068905Z" style="stroke: rgb(255, 255, 255); fill: rgb(205, 242, 226); fill-rule: evenodd;"></path><text transform="rotate(201.20418848167537)" x="366.76175850270977" dx="6" dy=".35em" style="font-size: 11px; font-family: Arial, Helvetica;">Yes</text><title>Yes: 7</title></g><g><path d="M-374.61643322105544,-197.52158859409388A423.5,423.5 0 0,1 -367.9172040287971,-209.73597922062044L-318.62564517828065,-181.63668609266244A366.76175850270977,366.76175850270977 0 0,0 -324.42734784455075,-171.05871351834392Z" style="stroke: rgb(255, 255, 255); fill: rgb(205, 242, 226); fill-rule: evenodd;"></path><text transform="rotate(208.74345549738223)" x="366.76175850270977" dx="6" dy=".35em" style="font-size: 11px; font-family: Arial, Helvetica;">-</text><title>-: 1</title></g><g><path d="M-260.15674988395693,-148.30573316570153A299.45972183250285,299.45972183250285 0 0,1 -5.50098584723597e-14,-299.45972183250285L-3.8897843957917805e-14,-211.75A211.75,211.75 0 0,0 -183.95860201439854,-104.86798961031022Z" style="stroke: rgb(255, 255, 255); fill: rgb(175, 152, 232); fill-rule: evenodd;"></path><text transform="rotate(239.84293193717278)" x="211.75" dx="6" dy=".35em" style="font-size: 11px; font-family: Arial, Helvetica;">Provisions</text><title>Provisions: none</title></g><g><path d="M-318.62564517828065,-181.63668609266244A366.76175850270977,366.76175850270977 0 0,1 -305.9945686037467,-202.1917690832318L-249.84351904741368,-165.08888814818707A299.45972183250285,299.45972183250285 0 0,0 -260.15674988395693,-148.30573316570153Z" style="stroke: rgb(255, 255, 255); fill: rgb(175, 152, 232); fill-rule: evenodd;"></path><text transform="rotate(211.5706806282723)" x="299.45972183250285" dx="6" dy=".35em" style="font-size: 11px; font-family: Arial, Helvetica;">101 to 200</text><title>101 to 200: none</title></g><g><path d="M-367.9172040287971,-209.73597922062044A423.5,423.5 0 0,1 -353.33209310787316,-233.47094461626108L-305.9945686037467,-202.1917690832318A366.76175850270977,366.76175850270977 0 0,0 -318.62564517828065,-181.63668609266244Z" style="stroke: rgb(255, 255, 255); fill: rgb(175, 152, 232); fill-rule: evenodd;"></path><text transform="rotate(211.5706806282723)" x="366.76175850270977" dx="6" dy=".35em" style="font-size: 11px; font-family: Arial, Helvetica;">Yes</text><title>Yes: 2</title></g><g><path d="M-305.9945686037467,-202.1917690832318A366.76175850270977,366.76175850270977 0 0,1 -71.92142113946935,-359.64078840042475L-58.72359445583979,-293.6454740910986A299.45972183250285,299.45972183250285 0 0,0 -249.84351904741368,-165.08888814818707Z" style="stroke: rgb(255, 255, 255); fill: rgb(205, 242, 226); fill-rule: evenodd;"></path><text transform="rotate(236.07329842931932)" x="299.45972183250285" dx="6" dy=".35em" style="font-size: 11px; font-family: Arial, Helvetica;">201+</text><title>201+: none</title></g><g><path d="M-353.33209310787316,-233.47094461626108A423.5,423.5 0 0,1 -200.59574391673118,-372.9793526758461L-173.72101012292697,-323.0095945043582A366.76175850270977,366.76175850270977 0 0,0 -305.9945686037467,-202.1917690832318Z" style="stroke: rgb(255, 255, 255); fill: rgb(205, 242, 226); fill-rule: evenodd;"></path><text transform="rotate(227.59162303664922)" x="366.76175850270977" dx="6" dy=".35em" style="font-size: 11px; font-family: Arial, Helvetica;">No</text><title>No: 15</title></g><g><path d="M-200.59574391673118,-372.9793526758461A423.5,423.5 0 0,1 -136.81650814912913,-400.79108410477306L-118.4865717142265,-347.095260445039A366.76175850270977,366.76175850270977 0 0,0 -173.72101012292697,-323.0095945043582Z" style="stroke: rgb(255, 255, 255); fill: rgb(205, 242, 226); fill-rule: evenodd;"></path><text transform="rotate(246.43979057591616)" x="366.76175850270977" dx="6" dy=".35em" style="font-size: 11px; font-family: Arial, Helvetica;">-</text><title>-: 5</title></g><g><path d="M-136.81650814912913,-400.79108410477306A423.5,423.5 0 0,1 -83.04770371074649,-415.2774119891088L-71.92142113946966,-359.6407884004247A366.76175850270977,366.76175850270977 0 0,0 -118.4865717142265,-347.095260445039Z" style="stroke: rgb(255, 255, 255); fill: rgb(205, 242, 226); fill-rule: evenodd;"></path><text transform="rotate(254.92146596858632)" x="366.76175850270977" dx="6" dy=".35em" style="font-size: 11px; font-family: Arial, Helvetica;">Yes</text><title>Yes: 4</title></g><g><path d="M-71.92142113946935,-359.64078840042475A366.76175850270977,366.76175850270977 0 0,1 -36.13654325581846,-364.9771742746666L-29.505364014922645,-298.00261491192805A299.45972183250285,299.45972183250285 0 0,0 -58.72359445583979,-293.6454740910986Z" style="stroke: rgb(255, 255, 255); fill: rgb(143, 194, 232); fill-rule: evenodd;"></path><text transform="rotate(261.5183246073299)" x="299.45972183250285" dx="6" dy=".35em" style="font-size: 11px; font-family: Arial, Helvetica;">51 to 100</text><title>51 to 100: none</title></g><g><path d="M-83.04770371074612,-415.27741198910894A423.5,423.5 0 0,1 -69.34416299022043,-417.78419914973534L-60.05380675369957,-361.81172976340787A366.76175850270977,366.76175850270977 0 0,0 -71.92142113946935,-359.64078840042475Z" style="stroke: rgb(255, 255, 255); fill: rgb(143, 194, 232); fill-rule: evenodd;"></path><text transform="rotate(259.63350785340316)" x="366.76175850270977" dx="6" dy=".35em" style="font-size: 11px; font-family: Arial, Helvetica;">Yes</text><title>Yes: 1</title></g><g><path d="M-69.34416299022043,-417.78419914973534A423.5,423.5 0 0,1 -41.726885952658684,-421.43933963109544L-36.13654325581846,-364.9771742746666A366.76175850270977,366.76175850270977 0 0,0 -60.05380675369957,-361.81172976340787Z" style="stroke: rgb(255, 255, 255); fill: rgb(143, 194, 232); fill-rule: evenodd;"></path><text transform="rotate(262.4607329842932)" x="366.76175850270977" dx="6" dy=".35em" style="font-size: 11px; font-family: Arial, Helvetica;">No</text><title>No: 2</title></g><g><path d="M-36.13654325581846,-364.9771742746666A366.76175850270977,366.76175850270977 0 0,1 -24.11277420647157,-365.96825220238395L-19.687997696266297,-298.81182665134224A299.45972183250285,299.45972183250285 0 0,0 -29.505364014922645,-298.00261491192805Z" style="stroke: rgb(255, 255, 255); fill: rgb(247, 236, 164); fill-rule: evenodd;"></path><text transform="rotate(265.28795811518324)" x="299.45972183250285" dx="6" dy=".35em" style="font-size: 11px; font-family: Arial, Helvetica;">21 to 50</text><title>21 to 50: none</title></g><g><path d="M-41.726885952658684,-421.43933963109544A423.5,423.5 0 0,1 -27.843033358030052,-422.58373784780645L-24.11277420647157,-365.96825220238395A366.76175850270977,366.76175850270977 0 0,0 -36.13654325581846,-364.9771742746666Z" style="stroke: rgb(255, 255, 255); fill: rgb(247, 236, 164); fill-rule: evenodd;"></path><text transform="rotate(265.28795811518324)" x="366.76175850270977" dx="6" dy=".35em" style="font-size: 11px; font-family: Arial, Helvetica;">No</text><title>No: 1</title></g><g><path d="M-24.11277420647157,-365.96825220238395A366.76175850270977,366.76175850270977 0 0,1 -6.73730420399997e-14,-366.76175850270977L-5.50098584723597e-14,-299.45972183250285A299.45972183250285,299.45972183250285 0 0,0 -19.687997696266297,-298.81182665134224Z" style="stroke: rgb(255, 255, 255); fill: rgb(158, 227, 128); fill-rule: evenodd;"></path><text transform="rotate(268.11518324607334)" x="299.45972183250285" dx="6" dy=".35em" style="font-size: 11px; font-family: Arial, Helvetica;">Cant Say</text><title>Cant Say: none</title></g><g><path d="M-27.843033358030052,-422.58373784780645A423.5,423.5 0 0,1 -13.929052757706641,-423.2708724791644L-12.062913538827644,-366.56332824896A366.76175850270977,366.76175850270977 0 0,0 -24.11277420647157,-365.96825220238395Z" style="stroke: rgb(255, 255, 255); fill: rgb(158, 227, 128); fill-rule: evenodd;"></path><text transform="rotate(267.17277486910996)" x="366.76175850270977" dx="6" dy=".35em" style="font-size: 11px; font-family: Arial, Helvetica;">No</text><title>No: 1</title></g><g><path d="M-13.929052757706641,-423.2708724791644A423.5,423.5 0 0,1 2.983478728271674e-13,-423.5L2.58376837033376e-13,-366.76175850270977A366.76175850270977,366.76175850270977 0 0,0 -12.062913538827644,-366.56332824896Z" style="stroke: rgb(255, 255, 255); fill: rgb(158, 227, 128); fill-rule: evenodd;"></path><text transform="rotate(269.05759162303667)" x="366.76175850270977" dx="6" dy=".35em" style="font-size: 11px; font-family: Arial, Helvetica;">Yes</text><title>Yes: 1</title></g></g></svg>