<?xml version="1.0" encoding="utf-8"?>
<!-- Generator: Adobe Illustrator 22.0.1, SVG Export Plug-In . SVG Version: 6.00 Build 0)  -->
<svg version="1.1" id="Layer_1" xmlns="http://www.w3.org/2000/svg" xmlns:xlink="http://www.w3.org/1999/xlink" x="0px" y="0px"
	 viewBox="0 0 1389 1274" style="enable-background:new 0 0 1389 1274;" xml:space="preserve">
<style type="text/css">
	.st0{fill:none;stroke:#CCCCCC;}
	.st1{fill:#EEEEEE;stroke:#999999;}
	.st2{font-family:'ArialMT';}
	.st3{font-size:11px;}
</style>
<g transform="translate(500,500)">
	<path class="st0" d="M173,132c-23.7,92,62.3-71.7,124.7-143.4"/>
	<path class="st0" d="M173,132c-23.7,92,91.3,26.1,182.7,52.2"/>
	<path class="st0" d="M173,132c-23.7,92,11.3,94.3,22.6,188.6"/>
	<path class="st0" d="M173,132c-23.7,92-76.4,56.4-152.8,112.9"/>
	<path class="st0" d="M173,132c-23.7,92-93.8-15-187.6-30.1"/>
	<path class="st0" d="M173,132c-23.7,92-41.9-85.2-83.9-170.5"/>
	<path class="st0" d="M297.7-11.4C360-83.1,184.3-152.8,188.1-247.7"/>
	<path class="st0" d="M297.7-11.4c62.3-71.7-102-140.7-94.5-235.4"/>
	<path class="st0" d="M297.7-11.4C360-83.1,206.9-151,218.2-245.3"/>
	<path class="st0" d="M297.7-11.4c62.3-71.7-79.5-138-64.5-231.8"/>
	<path class="st0" d="M297.7-11.4c62.3-71.7-68.4-136-49.6-229.1"/>
	<path class="st0" d="M297.7-11.4c62.3-71.7-57.3-133.6-34.9-225.9"/>
	<path class="st0" d="M297.7-11.4c62.3-71.7-46.4-130.7-20.3-222"/>
	<path class="st0" d="M297.7-11.4c62.3-71.7-35.5-127.3-5.8-217.6"/>
	<path class="st0" d="M297.7-11.4c62.3-71.7-24.8-123.6,8.4-212.6"/>
	<path class="st0" d="M297.7-11.4c62.3-71.7-14.3-119.4,22.5-207"/>
	<path class="st0" d="M297.7-11.4c62.3-71.7-4-114.8,36.3-200.9"/>
	<path class="st0" d="M297.7-11.4c62.3-71.7,6.2-109.8,49.9-194.2"/>
	<path class="st0" d="M297.7-11.4c62.3-71.7,16.2-104.4,63.1-187"/>
	<path class="st0" d="M297.7-11.4c62.3-71.7,25.9-98.6,76.1-179.2"/>
	<path class="st0" d="M297.7-11.4c62.3-71.7,35.4-92.4,88.8-171"/>
	<path class="st0" d="M297.7-11.4c62.3-71.7,44.7-85.9,101.1-162.3"/>
	<path class="st0" d="M297.7-11.4c62.3-71.7,53.6-78.9,113.1-153.1"/>
	<path class="st0" d="M297.7-11.4C360-83.1,360-83.1,422.4-154.7"/>
	<path class="st0" d="M297.7-11.4c62.3-71.7,70.7-64.1,135.9-133.2"/>
	<path class="st0" d="M297.7-11.4C360-83.1,376.5-67.5,444.4-134"/>
	<path class="st0" d="M297.7-11.4c62.3-71.7,86.6-47.9,157-111.7"/>
	<path class="st0" d="M297.7-11.4c62.3-71.7,94-39.3,167-100.2"/>
	<path class="st0" d="M297.7-11.4C360-83.1,398.8-41.9,474.1-99.8"/>
	<path class="st0" d="M297.7-11.4C360-83.1,405.6-32.8,483.1-87.7"/>
	<path class="st0" d="M297.7-11.4c62.3-71.7,114.2-12,193.9-63.8"/>
	<path class="st0" d="M297.7-11.4c62.3-71.7,120.2-2.4,201.9-51"/>
	<path class="st0" d="M297.7-11.4C360-83.1,423.5-3.9,507-49.2"/>
	<path class="st0" d="M297.7-11.4C360-83.1,428.7,6.2,514-35.8"/>
	<path class="st0" d="M297.7-11.4C360-83.1,433.5,16.4,520.4-22.1"/>
	<path class="st0" d="M297.7-11.4C360-83.1,437.9,26.9,526.2-8.2"/>
	<path class="st0" d="M297.7-11.4C360-83.1,441.9,37.5,531.5,6"/>
	<path class="st0" d="M297.7-11.4C360-83.1,445.4,48.3,536.2,20.3"/>
	<path class="st0" d="M297.7-11.4C360-83.1,448.5,59.1,540.4,34.9"/>
	<path class="st0" d="M297.7-11.4C360-83.1,451.2,70.2,543.9,49.5"/>
	<path class="st0" d="M297.7-11.4C360-83.1,453.4,81.3,546.9,64.4"/>
	<path class="st0" d="M355.7,184.2c91.3,26.1,100.9-80.5,195.4-89.9"/>
	<path class="st0" d="M355.7,184.2c91.3,26.1,101.8-69.2,196.6-74.9"/>
	<path class="st0" d="M355.7,184.2c91.3,26.1,102.3-57.9,197.2-59.8"/>
	<path class="st0" d="M355.7,184.2c91.3,26.1,102.3-46.5,197.2-44.7"/>
	<path class="st0" d="M355.7,184.2c91.3,26.1,101.8-35.2,196.6-29.6"/>
	<path class="st0" d="M355.7,184.2c91.3,26.1,100.9-23.9,195.4-14.5"/>
	<path class="st0" d="M355.7,184.2c91.3,26.1,99.6-12.7,193.6,0.5"/>
	<path class="st0" d="M355.7,184.2c91.3,26.1,97.8-1.5,191.2,15.4"/>
	<path class="st0" d="M355.7,184.2c91.3,26.1,95.5,9.6,188.3,30.2"/>
	<path class="st0" d="M355.7,184.2c91.3,26.1,92.8,20.6,184.7,44.9"/>
	<path class="st0" d="M355.7,184.2c91.3,26.1,89.7,31.5,180.5,59.5"/>
	<path class="st0" d="M355.7,184.2c91.3,26.1,86.2,42.3,175.8,73.8"/>
	<path class="st0" d="M355.7,184.2c91.3,26.1,82.2,52.9,170.5,88"/>
	<path class="st0" d="M355.7,184.2c91.3,26.1,77.8,63.4,164.7,101.9"/>
	<path class="st0" d="M355.7,184.2c91.3,26.1,73,73.6,158.3,115.6"/>
	<path class="st0" d="M355.7,184.2c91.3,26.1,67.8,83.7,151.3,129"/>
	<path class="st0" d="M355.7,184.2c91.3,26.1,62.2,93.5,143.9,142.1"/>
	<path class="st0" d="M355.7,184.2c91.3,26.1,56.2,103.2,135.9,155"/>
	<path class="st0" d="M355.7,184.2c91.3,26.1,49.9,112.5,127.4,167.5"/>
	<path class="st0" d="M355.7,184.2c91.3,26.1,43.1,121.7,118.4,179.6"/>
	<path class="st0" d="M195.6,320.6c11.3,94.3,188.7,2.6,259.1,66.4"/>
	<path class="st0" d="M195.6,320.6c11.3,94.3,180.9,10.9,248.7,77.4"/>
	<path class="st0" d="M195.6,320.6c11.3,94.3,172.8,18.8,238,87.9"/>
	<path class="st0" d="M195.6,320.6c11.3,94.3,164.4,26.4,226.8,98.1"/>
	<path class="st0" d="M195.6,320.6c11.3,94.3,155.7,33.7,215.2,107.8"/>
	<path class="st0" d="M195.6,320.6c11.3,94.3,146.7,40.6,203.2,117"/>
	<path class="st0" d="M195.6,320.6c11.3,94.3,137.5,47.1,190.9,125.7"/>
	<path class="st0" d="M195.6,320.6c11.3,94.3,128,53.3,178.2,134"/>
	<path class="st0" d="M195.6,320.6c11.3,94.3,118.2,59.1,165.2,141.7"/>
	<path class="st0" d="M195.6,320.6c11.3,94.3,108.3,64.5,151.9,148.9"/>
	<path class="st0" d="M195.6,320.6c11.3,94.3,98.1,69.5,138.4,155.6"/>
	<path class="st0" d="M195.6,320.6c11.3,94.3,87.8,74.1,124.5,161.7"/>
	<path class="st0" d="M195.6,320.6c11.3,94.3,77.2,78.3,110.5,167.3"/>
	<path class="st0" d="M195.6,320.6c11.3,94.3,66.5,82,96.2,172.3"/>
	<path class="st0" d="M195.6,320.6c11.3,94.3,55.7,85.4,81.8,176.7"/>
	<path class="st0" d="M195.6,320.6c11.3,94.3,44.7,88.3,67.2,180.6"/>
	<path class="st0" d="M195.6,320.6c11.3,94.3,33.7,90.7,52.4,183.9"/>
	<path class="st0" d="M195.6,320.6c11.3,94.3,22.5,92.8,37.6,186.6"/>
	<path class="st0" d="M195.6,320.6c11.3,94.3,11.3,94.3,22.6,188.6"/>
	<path class="st0" d="M195.6,320.6c11.3,94.3,0,95.4,7.6,190.1"/>
	<path class="st0" d="M195.6,320.6c11.3,94.3-11.3,96.1-7.5,191.1"/>
	<path class="st0" d="M195.6,320.6C206.9,415,173,417,173,512"/>
	<path class="st0" d="M195.6,320.6c11.3,94.3-33.9,96.1-37.7,191.1"/>
	<path class="st0" d="M195.6,320.6c11.3,94.3-45.3,95.4-52.8,190.1"/>
	<path class="st0" d="M195.6,320.6c11.3,94.3-56.5,94.3-67.8,188.6"/>
	<path class="st0" d="M195.6,320.6c11.3,94.3-67.8,92.8-82.8,186.6"/>
	<path class="st0" d="M195.6,320.6c11.3,94.3-78.9,90.7-97.7,183.9"/>
	<path class="st0" d="M195.6,320.6c11.3,94.3-90,88.3-112.4,180.6"/>
	<path class="st0" d="M195.6,320.6C206.9,415,94.7,406,68.6,497.4"/>
	<path class="st0" d="M195.6,320.6c11.3,94.3-111.8,82-141.5,172.3"/>
	<path class="st0" d="M195.6,320.6C206.9,415,73.2,398.9,39.9,487.9"/>
	<path class="st0" d="M195.6,320.6c11.3,94.3-133,74.1-169.8,161.7"/>
	<path class="st0" d="M195.6,320.6C206.9,415,52.3,390.2,12,476.2"/>
	<path class="st0" d="M195.6,320.6C206.9,415,42.1,385.2-1.5,469.5"/>
	<path class="st0" d="M195.6,320.6C206.9,415,32.1,379.8-14.8,462.3"/>
	<path class="st0" d="M195.6,320.6C206.9,415,22.4,374-27.8,454.6"/>
	<path class="st0" d="M195.6,320.6C206.9,415,12.9,367.8-40.5,446.4"/>
	<path class="st0" d="M20.2,244.9c-76.4,56.4-25.5,109.4-84.9,183.5"/>
	<path class="st0" d="M20.2,244.9C-56.2,301.3-14,347.1-76.4,418.7"/>
	<path class="st0" d="M20.2,244.9c-76.4,56.4-42.6,94.5-107.7,163.7"/>
	<path class="st0" d="M20.2,244.9C-56.2,301.3-30.5,331.5-98.4,398"/>
	<path class="st0" d="M20.2,244.9c-76.4,56.4-58.5,78.4-128.9,142.1"/>
	<path class="st0" d="M20.2,244.9c-76.4,56.4-65.9,69.8-138.8,130.7"/>
	<path class="st0" d="M20.2,244.9c-76.4,56.4-73,61-148.3,118.9"/>
	<path class="st0" d="M20.2,244.9c-76.4,56.4-79.7,51.9-157.2,106.8"/>
	<path class="st0" d="M20.2,244.9c-76.4,56.4-86.1,42.5-165.7,94.3"/>
	<path class="st0" d="M20.2,244.9c-76.4,56.4-92.1,32.9-173.7,81.4"/>
	<path class="st0" d="M20.2,244.9c-76.4,56.4-97.7,23-181.2,68.3"/>
	<path class="st0" d="M20.2,244.9c-76.4,56.4-102.9,12.9-188.1,54.9"/>
	<path class="st0" d="M20.2,244.9c-76.4,56.4-107.7,2.7-194.5,41.2"/>
	<path class="st0" d="M20.2,244.9c-76.4,56.4-112.1-7.8-200.4,27.3"/>
	<path class="st0" d="M-14.6,101.9c-93.8-15-84.8,113.8-175.6,141.8"/>
	<path class="st0" d="M-14.6,101.9c-93.8-15-87.9,102.9-179.8,127.2"/>
	<path class="st0" d="M-14.6,101.9c-93.8-15-90.6,91.9-183.3,112.5"/>
	<path class="st0" d="M-14.6,101.9c-93.8-15-92.8,80.8-186.3,97.7"/>
	<path class="st0" d="M-14.6,101.9c-93.8-15-94.6,69.6-188.7,82.8"/>
	<path class="st0" d="M-14.6,101.9c-93.8-15-96,58.4-190.5,67.8"/>
	<path class="st0" d="M-14.6,101.9c-93.8-15-96.9,47.1-191.7,52.7"/>
	<path class="st0" d="M-14.6,101.9c-93.8-15-97.3,35.8-192.3,37.7"/>
	<path class="st0" d="M-14.6,101.9c-93.8-15-97.3,24.4-192.3,22.5"/>
	<path class="st0" d="M-14.6,101.9c-93.8-15-96.9,13.1-191.7,7.4"/>
	<path class="st0" d="M-14.6,101.9c-93.8-15-96,1.8-190.5-7.6"/>
	<path class="st0" d="M-14.6,101.9c-93.8-15-94.6-9.4-188.7-22.6"/>
	<path class="st0" d="M-14.6,101.9c-93.8-15-92.8-20.6-186.3-37.5"/>
	<path class="st0" d="M-14.6,101.9c-93.8-15-90.6-31.7-183.3-52.4"/>
	<path class="st0" d="M-14.6,101.9c-93.8-15-87.9-42.8-179.8-67"/>
	<path class="st0" d="M-14.6,101.9c-93.8-15-84.8-53.7-175.6-81.6"/>
	<path class="st0" d="M-14.6,101.9c-93.8-15-81.3-64.4-170.9-95.9"/>
	<path class="st0" d="M-14.6,101.9c-93.8-15-77.3-75-165.6-110.1"/>
	<path class="st0" d="M-14.6,101.9c-93.8-15-72.9-85.5-159.8-124"/>
	<path class="st0" d="M-14.6,101.9C-108.4,86.9-82.7,6.2-168-35.8"/>
	<path class="st0" d="M-14.6,101.9C-108.4,86.9-77.5-3.9-161-49.2"/>
	<path class="st0" d="M-14.6,101.9c-93.8-15-57.3-115.7-138.9-164.2"/>
	<path class="st0" d="M-14.6,101.9c-93.8-15-51.3-125.3-131-177.1"/>
	<path class="st0" d="M-14.6,101.9c-93.8-15-45-134.7-122.5-189.6"/>
	<path class="st0" d="M89.1-38.5c-41.9-85.2-134.8-12.2-207.7-73.1"/>
	<path class="st0" d="M89.1-38.5C47.2-123.7-38.3-59.3-108.7-123"/>
	<path class="st0" d="M89.1-38.5C47.2-123.7-30.5-67.5-98.4-134"/>
	<path class="st0" d="M89.1-38.5c-41.9-85.2-111.5-37-176.7-106.1"/>
	<path class="st0" d="M89.1-38.5C47.2-123.7-14-83.1-76.4-154.7"/>
	<path class="st0" d="M89.1-38.5C47.2-123.7-5.3-90.3-64.8-164.4"/>
	<path class="st0" d="M89.1-38.5C47.2-123.7,3.7-97.2-52.8-173.6"/>
	<path class="st0" d="M89.1-38.5c-41.9-85.2-76.2-65.3-129.6-143.9"/>
	<path class="st0" d="M89.1-38.5C47.2-123.7,22.4-110-27.8-190.6"/>
	<path class="st0" d="M89.1-38.5c-41.9-85.2-57-77.3-103.9-159.9"/>
	<path class="st0" d="M89.1-38.5c-41.9-85.2-47-82.7-90.6-167.1"/>
	<path class="st0" d="M89.1-38.5C47.2-123.7,52.3-126.2,12-212.2"/>
	<path class="st0" d="M89.1-38.5c-41.9-85.2-26.5-92.3-63.3-179.9"/>
	<path class="st0" d="M89.1-38.5c-41.9-85.2-15.9-96.5-49.2-185.4"/>
	<path class="st0" d="M89.1-38.5c-41.9-85.2-5.3-100.2-35-190.5"/>
	<path class="st0" d="M89.1-38.5C47.2-123.7,94.7-142,68.6-233.4"/>
	<path class="st0" d="M89.1-38.5c-41.9-85.2,16.5-106.5-5.9-198.8"/>
	<path class="st0" d="M89.1-38.5c-41.9-85.2,27.6-108.9,8.8-202"/>
	<path class="st0" d="M89.1-38.5c-41.9-85.2,38.8-110.9,23.7-204.7"/>
	<path class="st0" d="M89.1-38.5c-41.9-85.2,50-112.5,38.7-206.8"/>
	<path class="st0" d="M89.1-38.5c-41.9-85.2,61.3-113.6,53.7-208.3"/>
	<path class="st0" d="M89.1-38.5c-41.9-85.2,72.6-114.3,68.8-209.2"/>
	<g transform="rotate(104.43037974683543)translate(0)">
		<circle class="st1" cx="84.7" cy="-200.4" r="4.5"/>
	</g>
	<g transform="rotate(-48.9873417721519)translate(190)">
		<circle class="st1" cx="13.9" cy="217.2" r="4.5"/>
		<text transform="matrix(1 0 0 1 21.9244 220.5713)" class="st2 st3">Apparel and Accessories</text>
	</g>
	<g transform="rotate(-87.72151898734177)translate(380)">
		<circle class="st1" cx="-125" cy="178.1" r="4.5"/>
		<text transform="matrix(1 0 0 1 -117.0173 181.5212)" class="st2 st3">Jewellers</text>
	</g>
	<g transform="rotate(-85.44303797468355)translate(380)">
		<circle class="st1" cx="-117.8" cy="182.9" r="4.5"/>
		<text transform="matrix(1 0 0 1 -109.838 186.3505)" class="st2 st3">Silver Jewellery</text>
	</g>
	<g transform="rotate(-83.16455696202532)translate(380)">
		<circle class="st1" cx="-110.5" cy="187.5" r="4.5"/>
		<text transform="matrix(1 0 0 1 -102.4714 190.8907)" class="st2 st3">Footwear</text>
	</g>
	<g transform="rotate(-80.88607594936708)translate(380)">
		<circle class="st1" cx="-102.9" cy="191.7" r="4.5"/>
		<text transform="matrix(1 0 0 1 -94.9309 195.1346)" class="st2 st3">Watches, Tata products</text>
	</g>
	<g transform="rotate(-78.60759493670886)translate(380)">
		<circle class="st1" cx="-95.2" cy="195.7" r="4.5"/>
		<text transform="matrix(1 0 0 1 -87.2267 199.075)" class="st2 st3">Men&apos;s clothing</text>
	</g>
	<g transform="rotate(-76.32911392405063)translate(380)">
		<circle class="st1" cx="-87.4" cy="199.3" r="4.5"/>
		<text transform="matrix(1 0 0 1 -79.3728 202.7063)" class="st2 st3">Readymade kurtis</text>
	</g>
	<g transform="rotate(-74.0506329113924)translate(380)">
		<circle class="st1" cx="-79.4" cy="202.6" r="4.5"/>
		<text transform="matrix(1 0 0 1 -71.3801 206.0224)" class="st2 st3">Textiles</text>
	</g>
	<g transform="rotate(-71.77215189873418)translate(380)">
		<circle class="st1" cx="-71.3" cy="205.6" r="4.5"/>
		<text transform="matrix(1 0 0 1 -63.2621 209.0179)" class="st2 st3">Jewellery</text>
	</g>
	<g transform="rotate(-69.49367088607595)translate(380)">
		<circle class="st1" cx="-63" cy="208.3" r="4.5"/>
		<text transform="matrix(1 0 0 1 -55.032 211.6888)" class="st2 st3">Sarees</text>
	</g>
	<g transform="rotate(-67.21518987341773)translate(380)">
		<circle class="st1" cx="-54.7" cy="210.6" r="4.5"/>
		<text transform="matrix(1 0 0 1 -46.7014 214.0299)" class="st2 st3">Gold and silver jewellery</text>
	</g>
	<g transform="rotate(-64.9367088607595)translate(380)">
		<circle class="st1" cx="-46.3" cy="212.6" r="4.5"/>
		<text transform="matrix(1 0 0 1 -38.285 216.0384)" class="st2 st3">Imititaion/Artifical Jewellery</text>
	</g>
	<g transform="rotate(-62.65822784810126)translate(380)">
		<circle class="st1" cx="-37.8" cy="214.3" r="4.5"/>
		<text transform="matrix(1 0 0 1 -29.7952 217.7102)" class="st2 st3">Gold, Silver, Diamonds and gems</text>
	</g>
	<g transform="rotate(-60.37974683544304)translate(380)">
		<circle class="st1" cx="-29.2" cy="215.6" r="4.5"/>
		<text transform="matrix(1 0 0 1 -21.2449 219.0431)" class="st2 st3">Imitation/Artificial Jewellery</text>
	</g>
	<g transform="rotate(-58.10126582278481)translate(380)">
		<circle class="st1" cx="-20.6" cy="216.6" r="4.5"/>
		<text transform="matrix(1 0 0 1 -12.6488 220.0354)" class="st2 st3">Mysore Silk Sarees</text>
	</g>
	<g transform="rotate(-55.82278481012658)translate(380)">
		<circle class="st1" cx="-12" cy="217.3" r="4.5"/>
		<text transform="matrix(1 0 0 1 -4.0209 220.6852)" class="st2 st3">Kids Clothing</text>
	</g>
	<g transform="rotate(-53.54430379746835)translate(380)">
		<circle class="st1" cx="-3.4" cy="217.6" r="4.5"/>
		<text transform="matrix(1 0 0 1 4.6266 220.9915)" class="st2 st3">Sarees and Dress Materials</text>
	</g>
	<g transform="rotate(-51.265822784810126)translate(380)">
		<circle class="st1" cx="5.3" cy="217.5" r="4.5"/>
		<text transform="matrix(1 0 0 1 13.2799 220.9536)" class="st2 st3">Mens Suit and Shirt materials</text>
	</g>
	<g transform="rotate(-48.9873417721519)translate(380)">
		<circle class="st1" cx="13.9" cy="217.2" r="4.5"/>
		<text transform="matrix(1 0 0 1 21.9244 220.5714)" class="st2 st3">Full Ladies wear</text>
	</g>
	<g transform="rotate(-46.70886075949367)translate(380)">
		<circle class="st1" cx="22.5" cy="216.4" r="4.5"/>
		<text transform="matrix(1 0 0 1 30.5471 219.8461)" class="st2 st3">Mens Suits and Shirt materials</text>
	</g>
	<g transform="rotate(-44.43037974683544)translate(380)">
		<circle class="st1" cx="31.1" cy="215.4" r="4.5"/>
		<text transform="matrix(1 0 0 1 39.1341 218.7788)" class="st2 st3">Readymade Dresses, designer kurthis, leggings and fancy sarees</text>
	</g>
	<g transform="rotate(-42.15189873417722)translate(380)">
		<circle class="st1" cx="39.7" cy="214" r="4.5"/>
		<text transform="matrix(1 0 0 1 47.6716 217.3708)" class="st2 st3">Retail Store / Gold / Silver / Diamonds</text>
	</g>
	<g transform="rotate(-39.87341772151899)translate(380)">
		<circle class="st1" cx="48.1" cy="212.2" r="4.5"/>
		<text transform="matrix(1 0 0 1 56.1467 215.6241)" class="st2 st3">Dress materials and Kurtis</text>
	</g>
	<g transform="rotate(-37.59493670886076)translate(380)">
		<circle class="st1" cx="56.5" cy="210.1" r="4.5"/>
		<text transform="matrix(1 0 0 1 64.5456 213.5421)" class="st2 st3">Accessories</text>
	</g>
	<g transform="rotate(-35.31645569620253)translate(380)">
		<circle class="st1" cx="64.9" cy="207.7" r="4.5"/>
		<text transform="matrix(1 0 0 1 72.8548 211.1281)" class="st2 st3">Blouse/Saree stitching</text>
	</g>
	<g transform="rotate(-33.0379746835443)translate(380)">
		<circle class="st1" cx="73.1" cy="205" r="4.5"/>
		<text transform="matrix(1 0 0 1 81.0618 208.3857)" class="st2 st3">Gowns, wholesale cotton garments</text>
	</g>
	<g transform="rotate(-30.75949367088608)translate(380)">
		<circle class="st1" cx="81.2" cy="201.9" r="4.5"/>
		<text transform="matrix(1 0 0 1 89.1532 205.3186)" class="st2 st3">Dress Material, imitation jewellery etc</text>
	</g>
	<g transform="rotate(-28.481012658227847)translate(380)">
		<circle class="st1" cx="89.1" cy="198.5" r="4.5"/>
		<text transform="matrix(1 0 0 1 97.1163 201.9328)" class="st2 st3">GOld and Silver ornaments</text>
	</g>
	<g transform="rotate(-26.20253164556962)translate(380)">
		<circle class="st1" cx="96.9" cy="194.8" r="4.5"/>
		<text transform="matrix(1 0 0 1 104.9385 198.2328)" class="st2 st3">boutqiue, clothes</text>
	</g>
	<g transform="rotate(-23.92405063291139)translate(380)">
		<circle class="st1" cx="104.6" cy="190.8" r="4.5"/>
		<text transform="matrix(1 0 0 1 112.6072 194.2249)" class="st2 st3">Footwear, bags, accessories</text>
	</g>
	<g transform="rotate(-21.645569620253156)translate(380)">
		<circle class="st1" cx="112.1" cy="186.5" r="4.5"/>
		<text transform="matrix(1 0 0 1 120.1106 189.9154)" class="st2 st3">Fashion accessories, umbrellas, footwear, bags</text>
	</g>
	<g transform="rotate(-19.367088607594937)translate(380)">
		<circle class="st1" cx="119.4" cy="181.9" r="4.5"/>
		<text transform="matrix(1 0 0 1 127.4368 185.3108)" class="st2 st3">Clothes, fashion accessories</text>
	</g>
	<g transform="rotate(-17.088607594936704)translate(380)">
		<circle class="st1" cx="126.6" cy="177" r="4.5"/>
		<text transform="matrix(1 0 0 1 134.5741 180.4187)" class="st2 st3">Night wear and inner wear</text>
	</g>
	<g transform="rotate(-14.810126582278485)translate(380)">
		<circle class="st1" cx="133.5" cy="171.8" r="4.5"/>
		<text transform="matrix(1 0 0 1 141.5112 175.2465)" class="st2 st3">Designer clothes, fancy garments, bags, accessories</text>
	</g>
	<g transform="rotate(-12.531645569620252)translate(380)">
		<circle class="st1" cx="140.2" cy="166.4" r="4.5"/>
		<text transform="matrix(1 0 0 1 148.2373 169.8027)" class="st2 st3">Gold and Silver Jewellery</text>
	</g>
	<g transform="rotate(-10.253164556962034)translate(380)">
		<circle class="st1" cx="146.7" cy="160.7" r="4.5"/>
		<text transform="matrix(1 0 0 1 154.7416 164.0957)" class="st2 st3">Gold and silver jewellers</text>
	</g>
	<g transform="rotate(15.949367088607602)translate(190)">
		<circle class="st1" cx="202.6" cy="79.4" r="4.5"/>
		<text transform="matrix(1 0 0 1 210.6122 82.7904)" class="st2 st3">Book &amp; Stationery</text>
	</g>
	<g transform="rotate(-5.696202531645568)translate(380)">
		<circle class="st1" cx="159" cy="148.5" r="4.5"/>
		<text transform="matrix(1 0 0 1 167.0443 151.9292)" class="st2 st3">Old and New Text Books</text>
	</g>
	<g transform="rotate(-3.417721518987335)translate(380)">
		<circle class="st1" cx="164.8" cy="142.1" r="4.5"/>
		<text transform="matrix(1 0 0 1 172.8232 145.4887)" class="st2 st3">Stationary</text>
	</g>
	<g transform="rotate(-1.1392405063291164)translate(380)">
		<circle class="st1" cx="170.3" cy="135.4" r="4.5"/>
		<text transform="matrix(1 0 0 1 178.3415 138.8235)" class="st2 st3">New Textbooks</text>
	</g>
	<g transform="rotate(1.1392405063291164)translate(380)">
		<circle class="st1" cx="175.6" cy="128.5" r="4.5"/>
		<text transform="matrix(1 0 0 1 183.5902 131.9444)" class="st2 st3">Stationery Shops</text>
	</g>
	<g transform="rotate(3.417721518987335)translate(380)">
		<circle class="st1" cx="180.6" cy="121.5" r="4.5"/>
		<text transform="matrix(1 0 0 1 188.5616 124.8619)" class="st2 st3">Used and New Textbooks</text>
	</g>
	<g transform="rotate(5.696202531645554)translate(380)">
		<circle class="st1" cx="185.2" cy="114.2" r="4.5"/>
		<text transform="matrix(1 0 0 1 193.2473 117.5873)" class="st2 st3">Books, stationery, electronics</text>
	</g>
	<g transform="rotate(7.974683544303801)translate(380)">
		<circle class="st1" cx="189.6" cy="106.7" r="4.5"/>
		<text transform="matrix(1 0 0 1 197.6403 110.1322)" class="st2 st3">New books and Stationary</text>
	</g>
	<g transform="rotate(10.25316455696202)translate(380)">
		<circle class="st1" cx="193.7" cy="99.1" r="4.5"/>
		<text transform="matrix(1 0 0 1 201.733 102.5084)" class="st2 st3">New Notebooks and Textbooks</text>
	</g>
	<g transform="rotate(12.531645569620267)translate(380)">
		<circle class="st1" cx="197.5" cy="91.3" r="4.5"/>
		<text transform="matrix(1 0 0 1 205.5199 94.7279)" class="st2 st3">Only used textbooks</text>
	</g>
	<g transform="rotate(14.810126582278485)translate(380)">
		<circle class="st1" cx="201" cy="83.4" r="4.5"/>
		<text transform="matrix(1 0 0 1 208.9941 86.8029)" class="st2 st3">Stationary store</text>
	</g>
	<g transform="rotate(17.088607594936704)translate(380)">
		<circle class="st1" cx="204.2" cy="75.3" r="4.5"/>
		<text transform="matrix(1 0 0 1 212.1507 78.7463)" class="st2 st3">Stationary items</text>
	</g>
	<g transform="rotate(19.367088607594937)translate(380)">
		<circle class="st1" cx="207" cy="67.2" r="4.5"/>
		<text transform="matrix(1 0 0 1 214.9845 70.5703)" class="st2 st3">Higher edu. books, stationery</text>
	</g>
	<g transform="rotate(21.645569620253156)translate(380)">
		<circle class="st1" cx="209.5" cy="58.9" r="4.5"/>
		<text transform="matrix(1 0 0 1 217.4908 62.2884)" class="st2 st3">Old and New Textbooks</text>
	</g>
	<g transform="rotate(23.924050632911403)translate(380)">
		<circle class="st1" cx="211.7" cy="50.5" r="4.5"/>
		<text transform="matrix(1 0 0 1 219.6656 53.9134)" class="st2 st3">Books, stationery, copies and scanning, arts and craft supplies</text>
	</g>
	<g transform="rotate(26.20253164556962)translate(380)">
		<circle class="st1" cx="213.5" cy="42" r="4.5"/>
		<text transform="matrix(1 0 0 1 221.5065 45.4582)" class="st2 st3">Stationery, books, novelty craft supplies</text>
	</g>
	<g transform="rotate(28.48101265822784)translate(380)">
		<circle class="st1" cx="215" cy="33.5" r="4.5"/>
		<text transform="matrix(1 0 0 1 223.0092 36.9367)" class="st2 st3">Xerox (copy), books, printing, stationery</text>
	</g>
	<g transform="rotate(30.759493670886087)translate(380)">
		<circle class="st1" cx="216.2" cy="25" r="4.5"/>
		<text transform="matrix(1 0 0 1 224.1723 28.3623)" class="st2 st3">New textbooks</text>
	</g>
	<g transform="rotate(33.037974683544306)translate(380)">
		<circle class="st1" cx="217" cy="16.3" r="4.5"/>
		<text transform="matrix(1 0 0 1 224.9933 19.7482)" class="st2 st3">Stationary</text>
	</g>
	<g transform="rotate(35.31645569620254)translate(380)">
		<circle class="st1" cx="217.5" cy="7.7" r="4.5"/>
		<text transform="matrix(1 0 0 1 225.471 11.1084)" class="st2 st3">Old &amp; New text books</text>
	</g>
	<g transform="rotate(37.59493670886076)translate(380)">
		<circle class="st1" cx="217.6" cy="-1" r="4.5"/>
		<text transform="matrix(1 0 0 1 225.6054 2.4563)" class="st2 st3">Office &amp; School stationary items.</text>
	</g>
	<g transform="rotate(83.16455696202533)translate(190)">
		<circle class="st1" cx="151.7" cy="-156.1" r="4.5"/>
		<text transform="matrix(1 0 0 1 159.6519 -152.6497)" class="st2 st3">Food &amp; Beverage</text>
	</g>
	<g transform="rotate(42.15189873417722)translate(380)">
		<circle class="st1" cx="216.8" cy="-18.2" r="4.5"/>
		<text transform="matrix(1 0 0 1 224.8418 -14.8294)" class="st2 st3">Fast food, snacks, food-delivery available</text>
	</g>
	<g transform="rotate(44.43037974683543)translate(380)">
		<circle class="st1" cx="215.9" cy="-26.8" r="4.5"/>
		<text transform="matrix(1 0 0 1 223.945 -23.4358)" class="st2 st3">Dairy products, Grocery, General Goods</text>
	</g>
	<g transform="rotate(46.70886075949369)translate(380)">
		<circle class="st1" cx="214.7" cy="-35.4" r="4.5"/>
		<text transform="matrix(1 0 0 1 222.7069 -31.9999)" class="st2 st3">Bakery, cake shop, food</text>
	</g>
	<g transform="rotate(48.98734177215189)translate(380)">
		<circle class="st1" cx="213.1" cy="-43.9" r="4.5"/>
		<text transform="matrix(1 0 0 1 221.1293 -40.5075)" class="st2 st3">Kachrois (farsan and snacks)</text>
	</g>
	<g transform="rotate(51.265822784810126)translate(380)">
		<circle class="st1" cx="211.2" cy="-52.4" r="4.5"/>
		<text transform="matrix(1 0 0 1 219.2151 -48.9462)" class="st2 st3">Homemade snacks, mithai (sweets)</text>
	</g>
	<g transform="rotate(53.54430379746836)translate(380)">
		<circle class="st1" cx="209" cy="-60.7" r="4.5"/>
		<text transform="matrix(1 0 0 1 216.9666 -57.3027)" class="st2 st3">Sandwich stall</text>
	</g>
	<g transform="rotate(55.82278481012659)translate(380)">
		<circle class="st1" cx="206.4" cy="-69" r="4.5"/>
		<text transform="matrix(1 0 0 1 214.3878 -65.5621)" class="st2 st3">Lassi Shop(Small bites &amp; beverages)</text>
	</g>
	<g transform="rotate(58.101265822784825)translate(380)">
		<circle class="st1" cx="203.5" cy="-77.1" r="4.5"/>
		<text transform="matrix(1 0 0 1 211.4826 -73.7129)" class="st2 st3">Sweets, Grocery, General Goods, Masala Retailers</text>
	</g>
	<g transform="rotate(60.37974683544303)translate(380)">
		<circle class="st1" cx="200.3" cy="-85.2" r="4.5"/>
		<text transform="matrix(1 0 0 1 208.2556 -81.7418)" class="st2 st3">Chocolates, homemade snacks</text>
	</g>
	<g transform="rotate(62.65822784810126)translate(380)">
		<circle class="st1" cx="196.7" cy="-93" r="4.5"/>
		<text transform="matrix(1 0 0 1 204.7116 -89.6357)" class="st2 st3">Snacks</text>
	</g>
	<g transform="rotate(64.9367088607595)translate(380)">
		<circle class="st1" cx="192.9" cy="-100.8" r="4.5"/>
		<text transform="matrix(1 0 0 1 200.857 -97.3826)" class="st2 st3">Dryfuits, snacks</text>
	</g>
	<g transform="rotate(67.21518987341773)translate(380)">
		<circle class="st1" cx="188.7" cy="-108.4" r="4.5"/>
		<text transform="matrix(1 0 0 1 196.6975 -104.9707)" class="st2 st3">Fresh Cane Juice and Snacks</text>
	</g>
	<g transform="rotate(69.49367088607593)translate(380)">
		<circle class="st1" cx="184.2" cy="-115.8" r="4.5"/>
		<text transform="matrix(1 0 0 1 192.2396 -112.3867)" class="st2 st3">Snaks &amp; Pooja Items</text>
	</g>
	<g transform="rotate(71.7721518987342)translate(380)">
		<circle class="st1" cx="179.5" cy="-123" r="4.5"/>
		<text transform="matrix(1 0 0 1 187.4901 -119.6198)" class="st2 st3">Bakery, snacks</text>
	</g>
	<g transform="rotate(74.0506329113924)translate(380)">
		<circle class="st1" cx="174.5" cy="-130.1" r="4.5"/>
		<text transform="matrix(1 0 0 1 182.457 -126.6586)" class="st2 st3">Homemade food, snacks, parathas</text>
	</g>
	<g transform="rotate(76.32911392405063)translate(380)">
		<circle class="st1" cx="169.1" cy="-136.9" r="4.5"/>
		<text transform="matrix(1 0 0 1 177.1481 -133.4918)" class="st2 st3">Bakery, sweets, bread</text>
	</g>
	<g transform="rotate(78.60759493670886)translate(380)">
		<circle class="st1" cx="163.6" cy="-143.5" r="4.5"/>
		<text transform="matrix(1 0 0 1 171.5714 -140.1075)" class="st2 st3">Juices, sandwiches, pizza</text>
	</g>
	<g transform="rotate(80.88607594936707)translate(380)">
		<circle class="st1" cx="157.7" cy="-149.9" r="4.5"/>
		<text transform="matrix(1 0 0 1 165.7364 -146.4972)" class="st2 st3">Bakery, snacks, general goods</text>
	</g>
	<g transform="rotate(83.16455696202533)translate(380)">
		<circle class="st1" cx="151.7" cy="-156.1" r="4.5"/>
		<text transform="matrix(1 0 0 1 159.6518 -152.6496)" class="st2 st3">Baked goods, cakes</text>
	</g>
	<g transform="rotate(85.44303797468353)translate(380)">
		<circle class="st1" cx="145.3" cy="-162" r="4.5"/>
		<text transform="matrix(1 0 0 1 153.3275 -158.5553)" class="st2 st3">farsan, sweets</text>
	</g>
	<g transform="rotate(87.72151898734177)translate(380)">
		<circle class="st1" cx="138.8" cy="-167.6" r="4.5"/>
		<text transform="matrix(1 0 0 1 146.7737 -164.2056)" class="st2 st3">Nandini and Mother Diary Parlor</text>
	</g>
	<g transform="rotate(90)translate(380)">
		<circle class="st1" cx="132" cy="-173" r="4.5"/>
		<text transform="matrix(-1 0 0 -1 287.125 -176.41)" class="st2 st3">Coffee, milkshakes, ice-cream</text>
	</g>
	<g transform="rotate(92.27848101265823)translate(380)">
		<circle class="st1" cx="125" cy="-178.1" r="4.5"/>
		<text transform="matrix(-1 0 0 -1 196.6117 -181.5212)" class="st2 st3">Snacks, food</text>
	</g>
	<g transform="rotate(94.55696202531644)translate(380)">
		<circle class="st1" cx="117.8" cy="-182.9" r="4.5"/>
		<text transform="matrix(-1 0 0 -1 284.1881 -186.3504)" class="st2 st3">Snacks, farsaan, sweets, frankie</text>
	</g>
	<g transform="rotate(96.83544303797467)translate(380)">
		<circle class="st1" cx="110.5" cy="-187.5" r="4.5"/>
		<text transform="matrix(-1 0 0 -1 178.3965 -190.8907)" class="st2 st3">Juices Shop</text>
	</g>
	<g transform="rotate(99.11392405063293)translate(380)">
		<circle class="st1" cx="102.9" cy="-191.7" r="4.5"/>
		<text transform="matrix(-1 0 0 -1 246.6848 -195.1345)" class="st2 st3">Restaurant, vegetarian food</text>
	</g>
	<g transform="rotate(101.39240506329111)translate(380)">
		<circle class="st1" cx="95.2" cy="-195.7" r="4.5"/>
		<text transform="matrix(-1 0 0 -1 256.0883 -199.0751)" class="st2 st3">Baked goods, speciality snacks</text>
	</g>
	<g transform="rotate(103.67088607594937)translate(380)">
		<circle class="st1" cx="87.4" cy="-199.3" r="4.5"/>
		<text transform="matrix(-1 0 0 -1 330.0952 -202.7061)" class="st2 st3">Dairy farm, milk products, cold drinks, ice-cream</text>
	</g>
	<g transform="rotate(105.9493670886076)translate(380)">
		<circle class="st1" cx="79.4" cy="-202.6" r="4.5"/>
		<text transform="matrix(-1 0 0 -1 227.3991 -206.0223)" class="st2 st3">Restaurant, cold drinks, food</text>
	</g>
	<g transform="rotate(108.22784810126583)translate(380)">
		<circle class="st1" cx="71.3" cy="-205.6" r="4.5"/>
		<text transform="matrix(-1 0 0 -1 185.6526 -209.018)" class="st2 st3">Paan, mouth-freshner</text>
	</g>
	<g transform="rotate(110.50632911392404)translate(380)">
		<circle class="st1" cx="63" cy="-208.3" r="4.5"/>
		<text transform="matrix(-1 0 0 -1 267.9094 -211.6888)" class="st2 st3">Imported and novelty food items, snacks</text>
	</g>
	<g transform="rotate(112.78481012658227)translate(380)">
		<circle class="st1" cx="54.7" cy="-210.6" r="4.5"/>
		<text transform="matrix(-1 0 0 -1 263.264 -214.0299)" class="st2 st3">Cigarettes, condiments, tea, banana.. etc</text>
	</g>
	<g transform="rotate(115.06329113924053)translate(380)">
		<circle class="st1" cx="46.3" cy="-212.6" r="4.5"/>
		<text transform="matrix(-1 0 0 -1 177.7984 -216.0382)" class="st2 st3">Chinese food, cold drinks</text>
	</g>
	<g transform="rotate(117.34177215189871)translate(380)">
		<circle class="st1" cx="37.8" cy="-214.3" r="4.5"/>
		<text transform="matrix(-1 0 0 -1 110.0006 -217.71)" class="st2 st3">Indian spices</text>
	</g>
	<g transform="rotate(119.62025316455697)translate(380)">
		<circle class="st1" cx="29.2" cy="-215.6" r="4.5"/>
		<text transform="matrix(-1 0 0 -1 159.5288 -219.0434)" class="st2 st3">Breakfast &amp; Lunch meals</text>
	</g>
	<g transform="rotate(121.8987341772152)translate(380)">
		<circle class="st1" cx="20.6" cy="-216.6" r="4.5"/>
		<text transform="matrix(-1 0 0 -1 259.1444 -220.0358)" class="st2 st3">Speciality foods, snacks, mithai, farsaan, cakes</text>
	</g>
	<g transform="rotate(124.17721518987341)translate(380)">
		<circle class="st1" cx="12" cy="-217.3" r="4.5"/>
		<text transform="matrix(-1 0 0 -1 136.7832 -220.6854)" class="st2 st3">Cakes, pastery (bakery)</text>
	</g>
	<g transform="rotate(143.54430379746836)translate(190)">
		<circle class="st1" cx="-60.7" cy="-209" r="4.5"/>
		<text transform="matrix(-1 0 0 -1 -14.8084 -212.3765)" class="st2 st3">Medical</text>
	</g>
	<g transform="rotate(128.73417721518987)translate(380)">
		<circle class="st1" cx="-5.3" cy="-217.5" r="4.5"/>
		<text transform="matrix(-1 0 0 -1 52.2417 -220.9535)" class="st2 st3">Medicines</text>
	</g>
	<g transform="rotate(131.0126582278481)translate(380)">
		<circle class="st1" cx="-13.9" cy="-217.2" r="4.5"/>
		<text transform="matrix(-1 0 0 -1 43.5969 -220.5714)" class="st2 st3">Medicines</text>
	</g>
	<g transform="rotate(133.2911392405063)translate(380)">
		<circle class="st1" cx="-22.5" cy="-216.4" r="4.5"/>
		<text transform="matrix(-1 0 0 -1 133.7974 -219.8465)" class="st2 st3">Pharmacy, medicines, chemist</text>
	</g>
	<g transform="rotate(135.56962025316457)translate(380)">
		<circle class="st1" cx="-31.1" cy="-215.4" r="4.5"/>
		<text transform="matrix(-1 0 0 -1 270.7076 -218.7787)" class="st2 st3">Medicines, pharmacy, generic groceries (maggi, ice-creams)</text>
	</g>
	<g transform="rotate(137.8481012658228)translate(380)">
		<circle class="st1" cx="-39.7" cy="-214" r="4.5"/>
		<text transform="matrix(-1 0 0 -1 90.6067 -217.3707)" class="st2 st3">Pharmaceutical Products</text>
	</g>
	<g transform="rotate(140.126582278481)translate(380)">
		<circle class="st1" cx="-48.1" cy="-212.2" r="4.5"/>
		<text transform="matrix(-1 0 0 -1 87.6477 -215.6242)" class="st2 st3">Medicines, General goods</text>
	</g>
	<g transform="rotate(142.40506329113924)translate(380)">
		<circle class="st1" cx="-56.5" cy="-210.1" r="4.5"/>
		<text transform="matrix(-1 0 0 -1 72.503 -213.5424)" class="st2 st3">medicines, basic grocery</text>
	</g>
	<g transform="rotate(144.68354430379748)translate(380)">
		<circle class="st1" cx="-64.9" cy="-207.7" r="4.5"/>
		<text transform="matrix(-1 0 0 -1 73.3778 -211.1279)" class="st2 st3">Medicines, General Goods</text>
	</g>
	<g transform="rotate(146.96202531645568)translate(380)">
		<circle class="st1" cx="-73.1" cy="-205" r="4.5"/>
		<text transform="matrix(-1 0 0 -1 2.1898 -208.3856)" class="st2 st3">Medical Store</text>
	</g>
	<g transform="rotate(149.2405063291139)translate(380)">
		<circle class="st1" cx="-81.2" cy="-201.9" r="4.5"/>
		<text transform="matrix(-1 0 0 -1 -23.014 -205.3189)" class="st2 st3">Medeicine</text>
	</g>
	<g transform="rotate(151.51898734177217)translate(380)">
		<circle class="st1" cx="-89.1" cy="-198.5" r="4.5"/>
		<text transform="matrix(-1 0 0 -1 156.501 -201.9327)" class="st2 st3">Sweets, Grocery, Medicines, General Goods etc.</text>
	</g>
	<g transform="rotate(153.79746835443035)translate(380)">
		<circle class="st1" cx="-96.9" cy="-194.8" r="4.5"/>
		<text transform="matrix(-1 0 0 -1 36.4177 -198.2331)" class="st2 st3">Medicines, general goods</text>
	</g>
	<g transform="rotate(156.0759493670886)translate(380)">
		<circle class="st1" cx="-104.6" cy="-190.8" r="4.5"/>
		<text transform="matrix(-1 0 0 -1 4.0686 -194.2249)" class="st2 st3">Ayurvedic medicines</text>
	</g>
	<g transform="rotate(158.35443037974684)translate(380)">
		<circle class="st1" cx="-112.1" cy="-186.5" r="4.5"/>
		<text transform="matrix(-1 0 0 -1 115.3739 -189.9152)" class="st2 st3">Medical store, branded groceries, super-mart</text>
	</g>
	<g transform="rotate(189.11392405063293)translate(190)">
		<circle class="st1" cx="-191.7" cy="-102.9" r="4.5"/>
		<text transform="matrix(-1 0 0 -1 -156.2138 -106.3407)" class="st2 st3">Other</text>
	</g>
	<g transform="rotate(162.91139240506328)translate(380)">
		<circle class="st1" cx="-126.6" cy="-177" r="4.5"/>
		<text transform="matrix(-1 0 0 -1 -28.705 -180.4186)" class="st2 st3">Electrical products</text>
	</g>
	<g transform="rotate(165.18987341772151)translate(380)">
		<circle class="st1" cx="-133.5" cy="-171.8" r="4.5"/>
		<text transform="matrix(-1 0 0 -1 -79.6527 -175.2465)" class="st2 st3">Gift Shop</text>
	</g>
	<g transform="rotate(167.46835443037975)translate(380)">
		<circle class="st1" cx="-140.2" cy="-166.4" r="4.5"/>
		<text transform="matrix(-1 0 0 -1 39.9654 -169.8027)" class="st2 st3">Weighing Scales and Fire Crackers</text>
	</g>
	<g transform="rotate(169.74683544303798)translate(380)">
		<circle class="st1" cx="-146.7" cy="-160.7" r="4.5"/>
		<text transform="matrix(-1 0 0 -1 115.4347 -164.0957)" class="st2 st3">Panasonic and Samsung washing machines and TV</text>
	</g>
	<g transform="rotate(172.0253164556962)translate(380)">
		<circle class="st1" cx="-153" cy="-154.7" r="4.5"/>
		<text transform="matrix(-1 0 0 -1 98.9521 -158.1348)" class="st2 st3">Stainless steel, metal wares and home appliances</text>
	</g>
	<g transform="rotate(174.30379746835445)translate(380)">
		<circle class="st1" cx="-159" cy="-148.5" r="4.5"/>
		<text transform="matrix(-1 0 0 -1 -65.4559 -151.9291)" class="st2 st3">Eyewear/Opticals</text>
	</g>
	<g transform="rotate(176.58227848101262)translate(380)">
		<circle class="st1" cx="-164.8" cy="-142.1" r="4.5"/>
		<text transform="matrix(-1 0 0 -1 -108.5263 -145.4887)" class="st2 st3">Car decor</text>
	</g>
	<g transform="rotate(178.86075949367086)translate(380)">
		<circle class="st1" cx="-170.3" cy="-135.4" r="4.5"/>
		<text transform="matrix(-1 0 0 -1 -107.9322 -138.8236)" class="st2 st3">Steel items</text>
	</g>
	<g transform="rotate(181.13924050632914)translate(380)">
		<circle class="st1" cx="-175.6" cy="-128.5" r="4.5"/>
		<text transform="matrix(-1 0 0 -1 -64.8735 -131.9444)" class="st2 st3">Furniture and Interior</text>
	</g>
	<g transform="rotate(183.41772151898738)translate(380)">
		<circle class="st1" cx="-180.6" cy="-121.5" r="4.5"/>
		<text transform="matrix(-1 0 0 -1 -53.3447 -124.8619)" class="st2 st3">Steel ware &amp; Electronics</text>
	</g>
	<g transform="rotate(185.69620253164555)translate(380)">
		<circle class="st1" cx="-185.2" cy="-114.2" r="4.5"/>
		<text transform="matrix(-1 0 0 -1 -108.7712 -117.5873)" class="st2 st3">LPG Products</text>
	</g>
	<g transform="rotate(187.9746835443038)translate(380)">
		<circle class="st1" cx="-189.6" cy="-106.7" r="4.5"/>
		<text transform="matrix(-1 0 0 -1 14.5875 -110.1324)" class="st2 st3">Small electronics (CDs, mouse, printing)</text>
	</g>
	<g transform="rotate(190.25316455696202)translate(380)">
		<circle class="st1" cx="-193.7" cy="-99.1" r="4.5"/>
		<text transform="matrix(-1 0 0 -1 -92.1955 -102.5084)" class="st2 st3">Mobile accessories</text>
	</g>
	<g transform="rotate(192.53164556962025)translate(380)">
		<circle class="st1" cx="-197.5" cy="-91.3" r="4.5"/>
		<text transform="matrix(-1 0 0 -1 -110.0329 -94.728)" class="st2 st3">Flower Boutique</text>
	</g>
	<g transform="rotate(194.81012658227849)translate(380)">
		<circle class="st1" cx="-201" cy="-83.4" r="4.5"/>
		<text transform="matrix(-1 0 0 -1 -128.8095 -86.8029)" class="st2 st3">Dry Cleaners</text>
	</g>
	<g transform="rotate(197.08860759493672)translate(380)">
		<circle class="st1" cx="-204.2" cy="-75.3" r="4.5"/>
		<text transform="matrix(-1 0 0 -1 -92.2039 -78.7464)" class="st2 st3">Phone &amp; Accessories</text>
	</g>
	<g transform="rotate(199.3670886075949)translate(380)">
		<circle class="st1" cx="-207" cy="-67.2" r="4.5"/>
		<text transform="matrix(-1 0 0 -1 -165.9789 -70.5704)" class="st2 st3">Cycles</text>
	</g>
	<g transform="rotate(201.64556962025318)translate(380)">
		<circle class="st1" cx="-209.5" cy="-58.9" r="4.5"/>
		<text transform="matrix(-1 0 0 -1 -132.3916 -62.2884)" class="st2 st3">paint products</text>
	</g>
	<g transform="rotate(203.92405063291142)translate(380)">
		<circle class="st1" cx="-211.7" cy="-50.5" r="4.5"/>
		<text transform="matrix(-1 0 0 -1 -132.123 -53.9131)" class="st2 st3">Beauty parlour</text>
	</g>
	<g transform="rotate(206.20253164556965)translate(380)">
		<circle class="st1" cx="-213.5" cy="-42" r="4.5"/>
		<text transform="matrix(-1 0 0 -1 -86.8856 -45.4583)" class="st2 st3">Spectacles, contact lens</text>
	</g>
	<g transform="rotate(208.48101265822783)translate(380)">
		<circle class="st1" cx="-215" cy="-33.5" r="4.5"/>
		<text transform="matrix(-1 0 0 -1 -101.8646 -36.9366)" class="st2 st3">Cosmetics, stationary</text>
	</g>
	<g transform="rotate(210.75949367088606)translate(380)">
		<circle class="st1" cx="-216.2" cy="-25" r="4.5"/>
		<text transform="matrix(-1 0 0 -1 -136.4356 -28.3623)" class="st2 st3">Ticket Booking</text>
	</g>
	<g transform="rotate(213.03797468354435)translate(380)">
		<circle class="st1" cx="-217" cy="-16.3" r="4.5"/>
		<text transform="matrix(-1 0 0 -1 -114.8435 -19.7479)" class="st2 st3">Mobile Accessories</text>
	</g>
	<g transform="rotate(215.31645569620252)translate(380)">
		<circle class="st1" cx="-217.5" cy="-7.7" r="4.5"/>
		<text transform="matrix(-1 0 0 -1 -175.2358 -11.1083)" class="st2 st3">Optical</text>
	</g>
	<g transform="rotate(243.79746835443035)translate(190)">
		<circle class="st1" cx="-194.8" cy="96.9" r="4.5"/>
		<text transform="matrix(-1 0 0 -1 -136.0823 93.5289)" class="st2 st3">Provisions</text>
	</g>
	<g transform="rotate(219.873417721519)translate(380)">
		<circle class="st1" cx="-217.4" cy="9.6" r="4.5"/>
		<text transform="matrix(-1 0 0 -1 -90.3825 6.1941)" class="st2 st3">Grocery, General Goods</text>
	</g>
	<g transform="rotate(222.15189873417722)translate(380)">
		<circle class="st1" cx="-216.8" cy="18.2" r="4.5"/>
		<text transform="matrix(-1 0 0 -1 93.7925 14.8295)" class="st2 st3">Chillar Angadi - Bidi, Cigarete, other small items and groceries</text>
	</g>
	<g transform="rotate(224.43037974683546)translate(380)">
		<circle class="st1" cx="-215.9" cy="26.8" r="4.5"/>
		<text transform="matrix(-1 0 0 -1 157.0579 23.4361)" class="st2 st3">Chillar angadi - cigarette, biscuits, sanitary napkins, snacks, magazines etc</text>
	</g>
	<g transform="rotate(226.7088607594937)translate(380)">
		<circle class="st1" cx="-214.7" cy="35.4" r="4.5"/>
		<text transform="matrix(-1 0 0 -1 -42.8406 32.0001)" class="st2 st3">Paper, Cigarettes, Chocolates etc</text>
	</g>
	<g transform="rotate(228.98734177215186)translate(380)">
		<circle class="st1" cx="-213.1" cy="43.9" r="4.5"/>
		<text transform="matrix(-1 0 0 -1 -130.5411 40.5077)" class="st2 st3">Provision Store</text>
	</g>
	<g transform="rotate(231.2658227848101)translate(380)">
		<circle class="st1" cx="-211.2" cy="52.4" r="4.5"/>
		<text transform="matrix(-1 0 0 -1 68.6322 48.9462)" class="st2 st3">Grocery, Spice Retailers, Dairy Product, General Goods</text>
	</g>
	<g transform="rotate(233.5443037974684)translate(380)">
		<circle class="st1" cx="-209" cy="60.7" r="4.5"/>
		<text transform="matrix(-1 0 0 -1 48.8803 57.3025)" class="st2 st3">General Goods, Stationery, Gifts, Cosmetics Shops</text>
	</g>
	<g transform="rotate(235.82278481012662)translate(380)">
		<circle class="st1" cx="-206.4" cy="69" r="4.5"/>
		<text transform="matrix(-1 0 0 -1 55.3266 65.5624)" class="st2 st3">Chillar angadi - small items, paste, cigarette, snacks</text>
	</g>
	<g transform="rotate(238.1012658227848)translate(380)">
		<circle class="st1" cx="-203.5" cy="77.1" r="4.5"/>
		<text transform="matrix(-1 0 0 -1 113.2482 73.713)" class="st2 st3">Groceries - sells products at wholesale price to retail customers</text>
	</g>
	<g transform="rotate(240.37974683544303)translate(380)">
		<circle class="st1" cx="-200.3" cy="85.2" r="4.5"/>
		<text transform="matrix(-1 0 0 -1 -59.6 81.7415)" class="st2 st3">Grocery &amp; Provision Stores</text>
	</g>
	<g transform="rotate(242.65822784810126)translate(380)">
		<circle class="st1" cx="-196.7" cy="93" r="4.5"/>
		<text transform="matrix(-1 0 0 -1 -114.1125 89.6353)" class="st2 st3">General Goods</text>
	</g>
	<g transform="rotate(244.9367088607595)translate(380)">
		<circle class="st1" cx="-192.9" cy="100.8" r="4.5"/>
		<text transform="matrix(-1 0 0 -1 -51.5679 97.3825)" class="st2 st3">Grocery and general stores</text>
	</g>
	<g transform="rotate(247.21518987341773)translate(380)">
		<circle class="st1" cx="-188.7" cy="108.4" r="4.5"/>
		<text transform="matrix(-1 0 0 -1 37.5301 104.9707)" class="st2 st3">Grocery - Dry Fruit Retailers, General Goods</text>
	</g>
	<g transform="rotate(249.49367088607596)translate(380)">
		<circle class="st1" cx="-184.2" cy="115.8" r="4.5"/>
		<text transform="matrix(-1 0 0 -1 -14.2418 112.3867)" class="st2 st3">Grocery Stores, Masala Retailers</text>
	</g>
	<g transform="rotate(251.77215189873414)translate(380)">
		<circle class="st1" cx="-179.5" cy="123" r="4.5"/>
		<text transform="matrix(-1 0 0 -1 -86.5192 119.6193)" class="st2 st3">Groceries, spices</text>
	</g>
	<g transform="rotate(254.05063291139243)translate(380)">
		<circle class="st1" cx="-174.5" cy="130.1" r="4.5"/>
		<text transform="matrix(-1 0 0 -1 -94.2964 126.6588)" class="st2 st3">General goods</text>
	</g>
	<g transform="rotate(256.32911392405066)translate(380)">
		<circle class="st1" cx="-169.1" cy="136.9" r="4.5"/>
		<text transform="matrix(-1 0 0 -1 -91.4259 133.4913)" class="st2 st3">general goods</text>
	</g>
	<g transform="rotate(258.6075949367089)translate(380)">
		<circle class="st1" cx="-163.6" cy="143.5" r="4.5"/>
		<text transform="matrix(-1 0 0 -1 68.8328 140.1082)" class="st2 st3">Packaged food, snacks, chips, specialty foods</text>
	</g>
	<g transform="rotate(260.88607594936707)translate(380)">
		<circle class="st1" cx="-157.7" cy="149.9" r="4.5"/>
		<text transform="matrix(-1 0 0 -1 -77.565 146.4972)" class="st2 st3">packaged food</text>
	</g>
	<g transform="rotate(263.1645569620253)translate(380)">
		<circle class="st1" cx="-151.7" cy="156.1" r="4.5"/>
		<text transform="matrix(-1 0 0 -1 -98.4112 152.6501)" class="st2 st3">groceries</text>
	</g>
	<g transform="rotate(265.44303797468353)translate(380)">
		<circle class="st1" cx="-145.3" cy="162" r="4.5"/>
		<text transform="matrix(-1 0 0 -1 -73.1376 158.5553)" class="st2 st3">grocery store</text>
	</g>
	<g transform="rotate(267.72151898734177)translate(380)">
		<circle class="st1" cx="-138.8" cy="167.6" r="4.5"/>
		<text transform="matrix(-1 0 0 -1 -56.8081 164.2052)" class="st2 st3">Grocery Stores</text>
	</g>
</g>
</svg>
