<svg xmlns="http://www.w3.org/2000/svg" viewBox="0 0 30.51 40.68"><defs><style>.cls-1{fill:none;}.cls-2{fill:#5cc7d6;}.cls-3{fill:#112145;}</style></defs><title>Asset 4</title><g id="Layer_2" data-name="Layer 2"><g id="Layer_2-2" data-name="Layer 2"><ellipse class="cls-1" cx="15.25" cy="26.72" rx="5.08" ry="4.65"/><path class="cls-2" d="M30.51,26.72l-5.09-10.4a16,16,0,0,0-10.17-3.57C6.83,12.75,0,19,0,26.72a13.44,13.44,0,0,0,5.08,10.4v-11l0,.05c.29-4.9,4.71-8.8,10.14-8.8,5.62,0,10.17,4.17,10.17,9.31S20.87,36,15.25,36a10.92,10.92,0,0,1-5.09-1.25h0v5.1a16.33,16.33,0,0,0,5.08.8c7.33,0,15.26-4.85,15.26-4.85V26.72Z"/><path class="cls-2" d="M9.12,8.23C11.31,2.93,25.42,3,25.42,14v2.29h0a14.22,14.22,0,0,1,3.29,3.81,13,13,0,0,1,1.8,6.59V13.23C30.51-3.22,9.12-2,6,4.51l0,.06"/><path class="cls-2" d="M30.51,26.72a13,13,0,0,0-1.8-6.59,14.22,14.22,0,0,0-3.29-3.81l5.09,10.4Z"/><path class="cls-3" d="M5.08,26.16v.56c0-.17,0-.34,0-.51Z"/><ellipse class="cls-2" cx="15.25" cy="26.72" rx="5.08" ry="4.83"/></g></g></svg>